<?xml version="1.0" standalone="no"?>
<!DOCTYPE svg PUBLIC "-//W3C//DTD SVG 20010904//EN"
 "http://www.w3.org/TR/2001/REC-SVG-20010904/DTD/svg10.dtd">
<svg version="1.0" xmlns="http://www.w3.org/2000/svg"
 width="938.000000pt" height="938.000000pt" viewBox="0 0 938.000000 938.000000"
 preserveAspectRatio="xMidYMid meet">
<metadata>
Created by potrace 1.14, written by Peter Selinger 2001-2017
</metadata>
<g transform="translate(0.000000,938.000000) scale(0.100000,-0.100000)"
fill="#000000" stroke="none">
<path d="M1226 9359 c34 -38 94 -70 142 -75 58 -6 62 -6 200 -1 61 3 112 1
112 -4 0 -5 3 -8 8 -7 8 2 64 -8 137 -23 49 -11 84 -7 190 20 22 6 74 18 115
27 41 9 109 27 150 41 41 13 111 27 155 30 44 3 82 7 84 9 2 2 -292 4 -654 4
l-658 0 19 -21z"/>
<path d="M7159 8976 c-2 -2 -36 -6 -74 -9 -81 -6 -110 -16 -168 -55 -23 -16
-58 -34 -77 -42 -41 -15 -84 -46 -122 -86 -42 -45 -108 -128 -108 -137 0 -13
-98 -127 -160 -187 -32 -30 -65 -70 -74 -87 -9 -18 -23 -33 -31 -33 -8 0 -15
-4 -15 -8 0 -14 -74 -88 -102 -102 -15 -7 -40 -31 -55 -54 -15 -23 -31 -42
-35 -44 -5 -2 -8 -8 -8 -14 0 -6 -11 -23 -25 -40 -14 -16 -25 -37 -25 -45 0
-18 -47 -65 -70 -71 -8 -2 -27 -4 -42 -3 -15 0 -30 -4 -32 -8 -7 -11 -162 -4
-185 9 -27 14 -47 13 -65 -6 -9 -8 -16 -10 -16 -4 0 7 -6 8 -19 0 -28 -14
-118 -13 -124 3 -3 9 -7 9 -20 -2 -10 -8 -17 -9 -17 -3 0 7 -13 9 -31 7 -18
-2 -51 0 -75 4 -24 5 -45 6 -47 4 -11 -10 -201 -12 -213 -2 -11 9 -14 7 -15
-7 0 -12 -3 -14 -6 -6 -4 10 -8 10 -19 1 -11 -9 -14 -9 -14 0 0 7 -5 9 -12 5
-13 -8 -158 -15 -263 -13 -38 1 -104 2 -145 3 -41 1 -81 5 -87 9 -8 5 -13 4
-13 -3 0 -7 -6 -8 -17 -2 -10 5 -23 7 -30 5 -6 -2 -14 0 -17 6 -4 6 -19 3 -38
-7 -23 -11 -33 -12 -36 -4 -2 7 -9 9 -15 5 -18 -11 -50 -11 -74 0 -16 7 -27 6
-37 -2 -8 -7 -19 -10 -23 -8 -5 3 -38 -1 -73 -8 -35 -7 -68 -11 -72 -9 -3 2
-9 0 -13 -6 -4 -6 -10 -8 -15 -5 -5 3 -11 1 -14 -4 -7 -11 -65 -12 -71 -1 -5
8 -88 5 -145 -6 -19 -3 -50 -6 -67 -5 -20 1 -33 -4 -33 -12 0 -8 -4 -7 -10 3
-8 12 -11 13 -19 1 -5 -8 -11 -9 -15 -3 -8 14 -51 9 -71 -8 -21 -18 -52 -23
-60 -10 -3 6 -16 10 -29 10 -12 0 -27 5 -34 12 -9 9 -12 8 -12 -7 0 -18 -1
-18 -16 3 -9 13 -20 19 -27 15 -6 -4 -26 -6 -42 -4 -22 1 -38 -5 -56 -22 -13
-14 -42 -28 -66 -32 -37 -6 -43 -4 -54 17 -17 32 -71 93 -81 91 -4 -2 -12 6
-18 17 -6 11 -15 18 -20 15 -5 -3 -17 6 -26 20 -9 14 -21 25 -28 25 -6 0 -22
12 -35 25 -12 14 -27 22 -32 20 -5 -3 -29 6 -54 20 -25 14 -52 25 -60 25 -9 0
-23 9 -32 20 -10 11 -21 20 -26 20 -4 0 -18 9 -30 21 -12 11 -40 30 -62 41
-43 23 -91 68 -174 166 -29 34 -58 62 -64 62 -7 0 -39 26 -72 57 -33 31 -69
58 -79 60 -24 4 -46 22 -46 37 -1 12 -69 64 -115 86 -16 8 -36 21 -43 28 -7 6
-21 12 -31 12 -9 0 -21 4 -27 10 -19 19 -156 61 -236 72 -63 9 -98 9 -157 -1
-91 -16 -107 -23 -146 -69 -49 -59 -72 -113 -79 -187 -18 -177 -26 -315 -20
-345 3 -19 8 -98 11 -175 4 -164 6 -181 14 -190 4 -3 5 -24 2 -46 -4 -24 -1
-45 7 -54 8 -9 8 -15 2 -15 -6 0 -10 -9 -9 -20 1 -11 5 -20 9 -20 4 0 8 -15 8
-33 0 -18 5 -38 10 -43 6 -6 12 -29 14 -52 4 -39 32 -103 49 -110 4 -2 7 -10
7 -18 0 -8 5 -14 12 -14 6 0 9 -3 5 -6 -3 -4 0 -19 8 -35 8 -15 12 -35 9 -43
-5 -12 1 -16 25 -16 17 0 31 5 31 10 0 6 -9 10 -20 10 -11 0 -20 5 -20 11 0 6
9 8 20 4 15 -5 22 0 30 19 5 14 20 28 35 32 14 3 25 13 25 20 0 11 -7 13 -27
8 -23 -6 -25 -4 -21 14 5 16 -2 29 -23 46 -16 14 -29 28 -29 31 0 4 -7 13 -15
21 -8 9 -15 25 -15 36 0 12 -12 37 -27 56 -15 20 -28 42 -29 51 -6 51 -19 80
-38 90 -11 6 -14 10 -6 9 8 -1 29 7 47 18 31 19 31 20 17 54 -14 32 -13 36 3
48 17 12 17 14 -3 30 -25 20 -28 87 -5 102 9 5 11 14 6 26 -17 38 -15 75 5 96
11 12 20 32 20 44 0 36 27 90 55 108 25 17 26 18 10 36 -19 21 -13 55 9 47 9
-4 17 8 25 34 6 21 19 42 29 47 24 12 80 14 86 4 3 -5 30 -8 61 -6 45 3 60 -1
76 -17 11 -11 24 -17 30 -13 6 3 27 -9 47 -28 49 -46 104 -78 133 -78 14 0 41
-14 62 -31 20 -16 53 -33 72 -36 36 -6 58 -24 37 -31 -22 -7 -12 -18 15 -17
31 0 42 -21 15 -29 -14 -5 -17 -13 -14 -36 2 -17 9 -30 16 -30 6 0 17 -12 24
-27 14 -32 16 -77 2 -68 -21 13 -9 -25 12 -39 22 -16 19 -20 -15 -17 -31 4
-18 -15 33 -47 33 -21 52 -40 56 -59 9 -36 28 -55 48 -47 12 4 16 0 16 -16 0
-17 -4 -20 -20 -15 -11 4 -20 2 -20 -4 0 -6 -7 -11 -15 -11 -13 0 -14 -4 -5
-20 6 -11 21 -20 33 -20 27 0 54 -16 45 -26 -9 -8 -66 13 -89 33 -8 7 -26 13
-38 13 -12 0 -43 11 -68 24 l-46 25 28 7 c15 4 42 2 60 -5 44 -16 66 -14 59 4
-4 8 -13 15 -20 15 -8 0 -17 7 -21 16 -3 8 -11 13 -18 10 -18 -7 -27 5 -15 19
8 10 -1 14 -35 19 -25 4 -43 11 -40 15 2 5 -13 8 -35 8 -22 0 -46 6 -54 12 -8
7 -20 10 -26 6 -18 -11 -11 11 10 30 23 21 26 35 7 35 -7 0 -32 9 -56 20 -25
13 -50 18 -63 14 -15 -4 -17 -8 -8 -14 7 -4 10 -12 6 -18 -7 -11 15 -22 45
-22 10 0 19 -3 19 -7 0 -5 -23 -9 -50 -10 -28 0 -57 -6 -65 -13 -10 -8 -28 -9
-71 -1 -75 14 -204 14 -204 0 0 -5 -4 -7 -10 -4 -14 8 -35 -7 -35 -25 0 -8
-10 -16 -22 -18 -28 -4 -31 -32 -3 -32 11 0 20 -6 20 -14 0 -8 10 -22 23 -31
22 -17 22 -17 1 -11 -34 10 -70 -33 -43 -50 7 -4 1 -15 -17 -29 l-29 -23 50
-7 c40 -6 53 -12 62 -31 10 -21 8 -26 -9 -35 -19 -10 -19 -11 4 -31 24 -20 26
-56 4 -70 -6 -5 4 -5 23 -1 25 4 32 3 27 -5 -4 -7 3 -16 18 -23 31 -15 42 -49
15 -49 -11 0 -19 -7 -19 -17 0 -16 2 -16 11 -3 8 11 9 8 4 -15 -4 -16 -4 -27
-1 -24 7 7 76 -55 76 -69 0 -5 -14 -6 -31 -4 -24 4 -30 1 -27 -9 3 -9 18 -13
38 -12 23 1 29 -1 19 -8 -11 -7 -11 -9 4 -9 20 0 23 -16 5 -23 -8 -4 -4 -8 10
-12 12 -4 22 -12 22 -17 0 -6 10 -8 23 -5 12 4 28 2 36 -2 11 -7 7 -13 -15
-25 l-29 -15 25 -1 c23 -1 21 -3 -19 -16 -20 -6 6 -34 33 -35 20 0 20 -1 1 -9
-18 -7 -17 -8 10 -15 50 -11 51 -12 27 -22 l-23 -9 21 -27 c12 -15 19 -31 16
-36 -8 -12 23 -24 57 -22 18 2 27 -2 25 -10 -3 -13 2 -15 50 -18 25 -2 25 -3
6 -11 -26 -10 -40 -40 -19 -40 7 0 17 -5 21 -12 5 -8 2 -9 -9 -5 -9 3 -19 2
-22 -3 -4 -6 -13 -7 -23 -1 -23 12 -63 16 -83 7 -9 -4 -47 -6 -85 -4 -53 2
-68 6 -66 17 4 20 -17 31 -48 25 -17 -4 -34 1 -50 15 -14 11 -20 20 -13 21 16
0 -12 56 -33 64 -8 3 -13 10 -10 15 4 5 3 17 -1 28 -6 14 -9 8 -14 -22 -4 -22
-3 -50 2 -62 5 -14 4 -25 -2 -28 -10 -7 -10 -92 0 -110 6 -12 8 -24 15 -100
12 -125 16 -143 62 -239 8 -16 14 -34 14 -41 0 -7 9 -20 20 -30 12 -10 18 -25
16 -32 -4 -9 5 -13 29 -13 19 0 35 4 35 9 0 5 11 12 25 15 17 4 23 11 18 23
-5 12 -2 15 10 10 13 -5 16 -1 14 16 -2 17 4 23 25 25 16 2 28 8 28 13 0 6 11
21 25 35 14 14 22 31 19 39 -4 8 -1 22 6 30 11 13 16 13 34 2 43 -27 57 -29
54 -5 -2 15 5 26 22 35 14 7 19 13 12 13 -7 0 -10 4 -7 10 3 5 20 7 37 3 28
-5 30 -4 23 16 -5 18 -2 24 14 28 12 3 21 12 21 19 0 8 5 14 11 14 5 0 7 -4 4
-10 -9 -14 15 -12 44 4 17 10 20 15 11 21 -10 6 -9 11 4 21 11 8 13 14 7 19
-15 9 -14 31 2 34 6 1 28 3 48 5 41 4 79 22 79 36 0 6 -6 10 -14 10 -7 0 -19
6 -25 14 -9 11 -6 12 15 8 24 -4 25 -2 19 18 -6 20 -4 22 14 17 14 -3 24 0 28
9 3 8 13 14 22 13 31 -3 34 1 16 21 -18 19 -17 20 4 20 27 0 37 24 23 56 -7
15 -8 24 -2 24 6 0 10 -4 10 -10 0 -5 11 -10 25 -10 16 0 25 -6 25 -15 0 -9 7
-18 15 -21 29 -12 15 -24 -27 -24 l-43 0 25 -20 c14 -11 31 -20 38 -20 6 0 12
-9 12 -21 0 -11 3 -18 8 -15 4 2 26 1 48 -3 58 -11 89 12 79 59 -10 45 13 36
40 -16 11 -21 28 -40 38 -42 19 -4 23 13 6 24 -8 4 -3 12 12 20 l24 13 -28 1
c-31 0 -48 27 -26 41 23 14 85 10 99 -6 18 -22 30 -18 30 9 0 20 -4 23 -22 19
-18 -5 -21 -3 -11 7 9 10 6 17 -13 35 -31 28 -30 39 1 33 13 -3 22 -2 20 3 -3
4 -1 11 5 14 6 4 8 15 5 26 -5 15 -1 19 14 19 23 0 28 -15 9 -26 -7 -5 -4 -10
11 -16 12 -4 20 -12 16 -18 -5 -8 67 -50 87 -50 5 0 21 -11 36 -25 44 -41 59
-31 17 11 -14 14 -25 26 -25 27 0 2 11 4 24 5 13 1 35 -9 49 -22 15 -14 35
-27 46 -31 10 -3 27 -17 36 -31 14 -22 19 -23 32 -12 14 11 16 10 11 -14 -4
-20 -1 -25 9 -21 8 3 12 12 9 19 -3 8 -8 20 -11 27 -3 6 0 19 5 27 9 13 13 11
29 -10 11 -14 22 -39 26 -57 13 -68 79 -173 109 -173 6 0 4 5 -4 10 -13 8 -12
10 3 10 10 0 20 -6 23 -14 3 -8 14 -16 25 -19 11 -3 18 -13 17 -24 -2 -24 24
-83 37 -83 12 0 38 -79 33 -99 -2 -8 11 -18 27 -24 39 -13 40 -14 27 -30 -7
-8 -7 -18 -2 -27 8 -12 10 -11 10 6 0 12 7 27 15 34 12 10 17 7 27 -16 10 -22
10 -28 0 -32 -19 -6 -14 -26 11 -37 12 -6 21 -18 21 -27 -1 -10 3 -16 8 -15 5
1 18 -18 27 -42 10 -24 27 -52 38 -61 11 -9 24 -26 27 -38 8 -23 21 -28 31
-12 7 12 26 -4 44 -38 8 -16 9 -28 1 -41 -5 -11 -10 -44 -10 -75 0 -30 -4 -66
-10 -80 -13 -35 -3 -55 24 -52 33 4 48 16 42 32 -10 25 12 64 35 64 13 0 30 7
40 16 13 11 22 13 35 6 14 -8 24 -2 50 30 19 22 31 45 27 53 -3 8 -1 15 5 15
5 0 12 -7 16 -15 3 -8 13 -15 21 -15 9 0 13 4 10 10 -3 6 1 7 9 4 13 -5 16 2
16 35 0 30 -4 41 -15 41 -9 0 -15 9 -15 24 0 13 7 29 15 36 8 7 15 19 15 26 0
23 27 16 34 -8 3 -13 6 -40 6 -61 0 -49 16 -39 26 16 9 50 7 67 -12 88 -18 20
-18 39 0 39 8 0 16 10 19 23 2 12 4 1 4 -25 2 -81 24 -92 43 -23 13 45 40 82
40 54 0 -9 3 -10 8 -3 4 6 15 13 25 17 9 3 17 13 17 22 0 8 4 15 8 15 4 0 8
-12 7 -27 0 -20 -5 -27 -17 -25 -11 2 -17 -4 -16 -15 0 -10 -3 -30 -7 -45 -4
-18 -3 -28 4 -28 15 0 34 39 27 56 -3 8 1 14 8 14 7 0 26 12 42 28 24 23 29
35 29 78 0 35 5 56 18 68 20 20 19 20 36 -12 12 -23 13 -23 32 -6 10 9 19 23
19 29 0 17 68 68 79 60 5 -3 11 5 13 17 2 13 9 22 16 20 7 -1 15 5 18 13 4 8
16 15 28 15 12 0 27 5 34 12 8 8 15 8 24 1 7 -6 29 -13 48 -17 21 -3 30 -2 22
3 -11 6 -10 10 3 15 9 3 27 6 39 6 12 0 32 7 45 16 20 15 25 15 38 2 13 -13
11 -18 -15 -43 -24 -23 -29 -33 -22 -50 5 -14 4 -27 -3 -34 -6 -6 -8 -13 -5
-16 9 -9 32 5 51 30 18 25 18 25 -10 25 -24 1 -26 2 -10 11 9 6 26 7 37 4 14
-5 20 -2 20 9 0 9 6 16 13 17 6 1 26 2 44 4 18 1 39 5 47 8 12 5 13 1 5 -19
-5 -14 -7 -29 -4 -34 13 -22 108 33 120 69 4 15 16 19 62 20 32 0 65 4 75 7
27 8 21 -11 -7 -24 -14 -6 -25 -16 -25 -22 0 -5 -7 -10 -15 -10 -8 0 -15 5
-15 11 0 6 -6 9 -12 6 -7 -2 -12 -10 -11 -18 1 -8 -15 -25 -36 -38 -37 -22
-38 -24 -26 -57 15 -45 18 -46 64 -46 l40 1 -30 -30 c-31 -30 -34 -54 -4 -29
21 18 49 5 42 -21 -3 -12 0 -22 9 -26 8 -3 14 -11 14 -19 0 -12 -4 -12 -20 -2
-18 11 -23 10 -40 -12 -11 -14 -20 -30 -20 -36 0 -7 -10 -14 -22 -17 -31 -9
-20 -15 43 -25 53 -9 54 -9 27 -22 -15 -7 -25 -17 -22 -21 3 -5 16 -2 30 7 16
11 24 12 24 5 0 -7 8 -11 18 -10 39 6 81 -23 50 -34 -42 -15 59 -25 119 -12
25 6 34 3 39 -8 3 -10 12 -13 22 -10 11 4 7 -3 -8 -17 -16 -14 -19 -21 -8 -17
9 3 22 -1 28 -9 7 -8 19 -14 26 -14 15 0 19 -26 5 -34 -5 -3 -20 3 -34 14 -14
11 -40 20 -59 19 l-33 0 38 -16 c20 -8 37 -19 37 -24 0 -5 9 -9 21 -9 23 0 61
-18 71 -33 8 -13 -13 -47 -30 -47 -7 0 -20 -7 -28 -15 -17 -17 -64 -20 -64 -5
0 6 -11 10 -24 10 -14 0 -28 -4 -31 -10 -3 -5 -1 -10 4 -10 6 0 11 -4 11 -9 0
-12 -100 -3 -115 9 -25 21 -119 14 -183 -12 -34 -14 -72 -24 -83 -21 -12 4
-25 0 -29 -8 -5 -7 -12 -10 -15 -7 -4 4 0 17 9 30 45 63 -11 39 -91 -41 -38
-37 -83 -73 -101 -79 -35 -12 -62 -34 -62 -51 0 -13 -35 -32 -44 -24 -3 4 -16
-2 -29 -13 -36 -31 -63 -43 -84 -38 -11 3 -25 -2 -32 -10 -8 -9 -24 -16 -37
-16 -13 0 -24 -6 -24 -13 0 -17 -45 -38 -64 -31 -18 7 -29 -26 -20 -63 6 -24
5 -26 -7 -12 -19 21 -75 43 -89 34 -7 -4 -10 -18 -7 -32 3 -15 -4 -37 -18 -58
-13 -18 -25 -41 -27 -52 -5 -26 -48 -30 -48 -4 0 11 -9 25 -19 30 -16 9 -23 5
-45 -24 -32 -42 -61 -47 -54 -10 5 25 -14 36 -27 15 -3 -5 -11 -10 -16 -10 -6
0 -7 4 -4 10 3 5 0 7 -8 4 -8 -3 -32 2 -52 11 -21 8 -40 13 -43 11 -2 -3 -18
2 -34 10 l-30 15 3 -33 c5 -65 -33 -138 -73 -138 -10 0 -18 -4 -18 -10 0 -5
-10 -9 -22 -7 -17 1 -24 -4 -26 -20 -2 -13 -8 -23 -13 -23 -5 0 -9 -7 -9 -15
0 -9 -9 -15 -24 -15 -13 0 -31 -3 -40 -6 -13 -5 -15 -1 -9 27 6 32 5 33 -10
17 -9 -9 -17 -24 -17 -32 0 -11 -9 -16 -29 -16 -16 0 -32 -6 -34 -12 -4 -10
-7 -10 -15 0 -5 7 -21 19 -35 27 -21 11 -28 11 -37 0 -8 -9 -6 -14 5 -19 12
-4 14 -16 9 -59 -4 -36 -3 -57 5 -61 6 -4 11 -2 11 5 0 10 3 10 11 2 14 -14 3
-34 -15 -27 -10 4 -17 -9 -24 -43 -7 -33 -10 -40 -11 -20 -1 31 -31 39 -31 7
0 -11 -9 -29 -20 -40 l-21 -21 31 -25 c23 -20 34 -23 44 -15 7 6 15 8 19 5 7
-8 77 18 77 28 0 5 11 6 25 4 14 -3 24 0 22 6 -4 21 22 18 28 -3 5 -15 2 -25
-9 -31 -20 -11 -21 -48 -1 -48 8 0 15 -5 15 -12 0 -9 3 -9 12 0 7 7 18 12 26
12 11 0 123 108 122 118 -1 15 2 22 10 22 6 0 10 -7 10 -15 0 -8 5 -15 11 -15
6 0 9 6 6 13 -2 6 0 20 4 29 16 31 1 47 -42 43 -34 -3 -41 0 -48 18 -7 18 -4
23 13 27 11 3 21 10 21 15 1 32 49 61 81 48 16 -6 19 -33 4 -33 -5 0 -10 -7
-10 -15 0 -8 5 -15 10 -15 6 0 10 5 10 10 0 6 9 10 20 10 11 0 23 6 26 14 6
16 32 29 44 21 14 -9 -14 -55 -37 -61 -28 -7 -50 -33 -55 -63 -3 -20 3 -25 42
-37 25 -8 55 -14 67 -14 25 0 59 30 45 39 -9 6 -16 40 -13 69 1 8 18 12 49 12
26 0 52 4 58 9 5 5 26 14 47 21 45 14 68 2 43 -23 -21 -21 -21 -67 0 -67 9 0
32 -8 51 -17 33 -15 37 -15 69 2 21 11 39 15 51 10 16 -8 16 -9 -4 -12 -36 -7
-28 -33 10 -33 53 0 109 -19 103 -36 -8 -20 34 -18 49 3 7 9 17 13 23 9 17
-11 15 -24 -5 -28 -15 -3 -14 -6 6 -17 39 -22 54 4 57 96 1 43 3 80 4 83 1 3
2 8 2 11 -2 14 40 43 61 44 15 0 23 7 25 23 2 12 8 22 13 22 5 0 9 7 9 15 0
22 18 18 46 -10 20 -20 29 -23 39 -15 10 8 17 6 28 -10 11 -16 21 -20 36 -15
12 3 21 11 21 17 0 6 11 3 25 -6 27 -18 55 -21 55 -6 0 15 33 -2 59 -31 21
-24 26 -26 39 -13 8 9 21 12 31 8 28 -12 167 -15 212 -5 29 7 47 6 56 0 14
-13 52 -3 54 14 1 7 2 21 3 32 1 16 7 19 28 17 30 -4 68 13 68 30 0 14 48 55
83 71 15 6 27 20 27 29 0 9 6 21 13 25 23 15 90 140 82 154 -10 15 43 22 76
10 49 -17 61 -14 55 12 -3 12 -3 16 0 10 3 -7 18 -13 33 -13 15 0 32 -5 38
-11 7 -7 12 -3 15 15 3 14 1 24 -4 23 -6 -1 -14 8 -19 21 -7 19 -5 22 17 22
14 0 38 7 55 16 l30 15 -23 19 c-20 17 -21 19 -5 20 10 0 32 -7 48 -16 17 -8
38 -14 47 -13 24 4 62 -10 62 -22 0 -6 -12 -8 -27 -5 -16 3 -46 0 -68 -8 l-39
-14 39 -11 c59 -16 86 -14 112 11 18 17 26 19 35 10 9 -9 9 -12 -3 -12 -10 -1
-9 -3 4 -11 21 -12 100 -2 91 12 -3 5 3 10 13 11 10 0 23 2 30 2 7 1 27 15 45
33 18 17 42 34 53 37 11 3 -2 3 -29 0 -46 -5 -48 -4 -43 15 3 12 1 24 -4 27
-14 8 0 24 21 24 10 0 20 6 23 13 3 9 7 9 21 -2 14 -12 19 -12 34 1 9 9 24 18
32 20 10 4 5 8 -14 13 -17 5 -42 3 -61 -4 -41 -14 -45 -14 -45 4 0 8 -4 15
-10 15 -24 0 -7 27 25 40 23 9 31 16 23 21 -9 6 -8 9 5 13 9 4 25 9 35 12 18
7 33 9 90 12 22 1 32 7 32 18 0 10 -6 14 -17 10 -10 -3 -36 -7 -58 -10 -22 -3
-32 -3 -22 0 18 6 23 29 8 38 -5 3 -14 -1 -21 -9 -12 -14 -40 -21 -40 -9 0 13
25 50 42 62 15 11 17 17 7 28 -7 8 -19 14 -28 13 -9 -1 -24 -1 -35 0 -15 1
-16 4 -6 16 7 8 15 13 19 11 16 -10 29 12 36 57 7 43 6 47 -14 47 -11 0 -21
-4 -21 -10 0 -5 -9 -10 -20 -10 -11 0 -20 6 -20 14 0 8 -2 20 -5 28 -6 16 43
48 74 48 31 0 140 52 119 57 -9 2 -26 -1 -37 -7 -16 -8 -27 -8 -43 2 -27 14
-57 12 -79 -8 -8 -8 -21 -14 -28 -14 -18 0 -9 21 15 34 10 6 21 14 24 17 3 3
13 8 23 12 9 4 16 12 15 19 -2 10 13 12 60 10 40 -3 62 0 62 7 0 6 7 11 16 11
11 0 14 6 9 20 -4 14 -1 22 10 26 9 4 21 18 27 33 7 19 12 22 15 11 3 -8 12
-23 20 -32 13 -14 12 -18 -5 -27 -14 -7 -18 -17 -15 -31 5 -18 12 -20 52 -16
25 2 52 5 59 5 17 1 15 21 -3 21 -8 0 -15 6 -15 13 0 8 -3 7 -10 -3 -17 -28
-23 -1 -6 32 47 90 62 108 90 108 17 0 18 2 6 10 -10 7 -1 8 30 4 25 -4 46 -8
48 -9 8 -6 -12 -34 -31 -43 l-22 -11 23 0 c12 -1 22 -6 22 -12 0 -8 4 -8 14 0
11 9 13 4 13 -29 0 -22 -4 -43 -8 -46 -16 -10 -9 -23 20 -39 16 -8 32 -24 36
-35 3 -11 13 -20 22 -20 9 0 41 -27 72 -59 57 -60 153 -128 200 -141 14 -4 26
-13 25 -21 -1 -18 58 -17 64 1 2 6 15 15 28 20 13 5 24 15 24 21 0 6 -7 9 -15
5 -19 -7 -20 21 -2 43 21 24 80 199 73 216 -3 8 -2 15 3 15 5 0 12 12 16 28 3
15 14 35 22 44 9 11 17 40 19 70 1 29 10 71 19 92 11 27 14 51 10 75 -20 100
-25 210 -12 236 5 11 6 17 2 13 -15 -14 -35 13 -29 38 3 13 3 32 -1 41 -10 24
-12 73 -3 73 4 0 5 17 3 39 -2 21 2 50 10 64 7 15 9 30 4 38 -18 28 -4 89 24
110 5 3 11 26 14 50 3 24 10 49 15 56 5 7 7 17 3 23 -3 5 -2 10 3 10 11 0 11
5 17 108 4 78 -9 185 -25 207 -4 6 -13 36 -20 67 -6 32 -15 60 -19 62 -4 3 -8
24 -9 48 -2 52 -10 78 -29 99 -8 9 -23 50 -33 90 -22 86 -41 141 -56 160 -13
17 -32 54 -113 220 -34 70 -68 132 -76 139 -8 7 -12 16 -9 21 3 5 -1 9 -9 9
-7 0 -20 12 -27 26 -17 32 -120 84 -165 84 -19 0 -37 5 -40 10 -6 9 -107 15
-116 6z m-169 -452 c16 3 32 1 35 -4 4 -6 14 -5 26 3 16 10 21 9 29 -3 14 -21
13 -24 -14 -36 -16 -8 -28 -8 -34 -2 -6 6 -15 7 -21 4 -14 -9 -14 -36 -1 -36
16 0 12 -37 -5 -44 -8 -3 -15 -12 -15 -19 0 -9 -19 -19 -47 -27 -26 -6 -51
-17 -55 -23 -5 -7 -8 -1 -8 16 0 15 6 27 13 28 6 0 -1 5 -18 10 -24 7 -33 5
-43 -9 -7 -9 -19 -24 -26 -33 -8 -9 -17 -31 -21 -49 -5 -21 -15 -34 -28 -38
-20 -5 -20 -6 -1 -13 16 -7 17 -8 2 -8 -10 -1 -18 -5 -18 -9 0 -5 -15 -17 -34
-27 -19 -11 -33 -22 -30 -26 2 -4 -8 -7 -23 -6 -21 2 -28 -4 -34 -23 -5 -17
-7 -19 -8 -7 -1 14 -6 17 -23 11 -46 -14 -61 -61 -18 -56 12 1 29 -3 36 -9 7
-6 18 -8 24 -4 6 4 10 -4 10 -19 0 -17 -8 -28 -30 -38 -16 -7 -30 -19 -30 -26
0 -8 -8 -28 -17 -44 -13 -21 -14 -32 -7 -35 7 -2 10 -13 7 -23 -4 -15 0 -20
15 -20 11 0 19 -6 18 -12 -4 -22 -83 -93 -99 -90 -9 2 -22 -2 -29 -8 -7 -6
-22 -17 -33 -25 -14 -10 -15 -13 -4 -9 10 3 20 0 24 -6 7 -11 -54 -42 -67 -34
-17 11 -7 52 17 70 16 12 23 25 19 36 -3 12 0 18 10 18 9 0 16 5 16 10 0 6 5
10 10 10 6 0 28 16 48 36 33 33 34 36 12 29 -23 -7 -24 -6 -10 10 8 9 15 23
16 31 3 19 -25 18 -32 -1 -4 -8 -14 -15 -24 -15 -10 0 -20 -6 -23 -12 -2 -7
-8 -9 -13 -5 -5 5 -1 14 9 22 9 7 15 19 12 26 -6 18 19 51 37 48 33 -4 38 2
38 45 0 41 -2 44 -25 42 -14 0 -25 -5 -25 -11 0 -5 -4 -3 -9 4 -6 9 -6 22 1
34 5 10 8 28 5 38 -3 10 -1 19 4 19 5 0 11 10 14 23 3 12 19 28 36 36 16 7 26
17 23 23 -3 5 3 18 15 29 12 11 21 26 21 34 0 8 9 19 20 25 11 6 20 17 20 24
0 14 25 29 49 30 17 1 34 52 27 79 -3 13 0 17 9 13 15 -5 76 12 85 24 11 15
49 29 69 25 11 -2 23 1 27 6 4 6 11 6 19 -1 17 -14 34 -5 37 18 0 9 3 2 5 -17
4 -31 7 -33 33 -27z m256 -39 c2 -11 10 -25 18 -31 25 -18 8 -24 -66 -24 -37
0 -68 -3 -68 -7 0 -5 -21 -9 -46 -11 l-47 -2 43 41 c35 34 47 40 71 35 19 -3
33 0 41 9 18 20 51 14 54 -10z m-576 -40 c0 -8 -2 -15 -4 -15 -2 0 -6 7 -10
15 -3 8 -1 15 4 15 6 0 10 -7 10 -15z m610 -65 c0 -5 -4 -10 -10 -10 -5 0 -10
5 -10 10 0 6 5 10 10 10 6 0 10 -4 10 -10z m-216 -42 c6 -5 1 -8 -11 -8 -14 0
-23 -6 -23 -15 0 -8 -7 -15 -15 -15 -21 0 -19 12 5 33 12 10 17 24 14 34 -4
14 -3 14 7 -2 7 -11 17 -23 23 -27z m-59 2 c-3 -5 -10 -10 -16 -10 -5 0 -9 5
-9 10 0 6 7 10 16 10 8 0 12 -4 9 -10z m258 -16 c-17 -13 -17 -13 0 -14 20 0
23 -20 3 -20 -8 0 -18 5 -21 10 -3 6 -15 10 -25 10 -10 0 -22 6 -26 13 -4 6
-4 9 0 5 4 -3 19 0 33 7 33 17 62 9 36 -11z m-293 -14 c0 -5 -4 -10 -10 -10
-5 0 -10 5 -10 10 0 6 5 10 10 10 6 0 10 -4 10 -10z m528 -252 c-3 -7 -18 -14
-34 -16 -28 -3 -28 -3 -9 12 24 19 48 21 43 4z m82 -54 c0 -7 -9 -18 -20 -24
-11 -6 -18 -15 -14 -21 6 -10 -13 -39 -26 -39 -3 0 -7 7 -7 15 0 8 5 12 10 8
5 -3 6 8 2 28 -8 37 -8 38 -6 56 2 17 61 -5 61 -23z m-1260 -10 c0 -8 -5 -12
-10 -9 -6 4 -8 11 -5 16 9 14 15 11 15 -7z m89 -76 c1 -5 -6 -8 -15 -8 -11 0
-14 5 -10 16 3 9 6 21 7 27 0 12 17 -20 18 -35z m-4511 1 c-12 -7 -24 -7 -35
0 -15 9 -12 10 17 10 29 0 32 -1 18 -10z m4589 -25 c-3 -3 -12 -4 -19 -1 -8 3
-5 6 6 6 11 1 17 -2 13 -5z m-67 -14 c0 -5 -2 -10 -4 -10 -3 0 -8 5 -11 10 -3
6 -1 10 4 10 6 0 11 -4 11 -10z m1135 -100 c-3 -5 -18 -10 -33 -9 -24 0 -25 1
-7 9 28 12 47 12 40 0z m-5015 -20 c0 -5 -5 -10 -11 -10 -5 0 -7 5 -4 10 3 6
8 10 11 10 2 0 4 -4 4 -10z m4110 -20 c0 -5 -5 -10 -11 -10 -5 0 -7 5 -4 10 3
6 8 10 11 10 2 0 4 -4 4 -10z m-4035 -21 c10 -15 -1 -23 -38 -25 l-32 -2 24
19 c26 22 37 24 46 8z m4950 0 c4 -5 0 -18 -9 -28 -9 -10 -16 -23 -16 -29 0
-7 -11 -12 -25 -12 -25 0 -33 14 -15 25 6 4 8 11 5 16 -4 5 6 9 22 10 15 0 22
3 16 6 -7 2 -13 9 -13 14 0 13 27 11 35 -2z m-955 -9 c-8 -5 -19 -10 -25 -10
-5 0 -3 5 5 10 8 5 20 10 25 10 6 0 3 -5 -5 -10z m-3941 -36 c33 -16 36 -33 4
-18 -17 7 -26 10 -46 13 -5 0 -5 6 -2 11 8 13 6 13 44 -6z m3951 -4 c0 -11 -7
-20 -15 -20 -8 0 -15 -4 -15 -10 0 -5 -6 -10 -13 -10 -21 0 -65 -42 -49 -47 6
-3 12 -11 12 -19 0 -25 32 -12 43 19 3 9 13 17 21 17 8 0 17 9 21 19 5 17 38
35 59 32 4 -1 14 6 22 16 13 17 13 17 14 -3 0 -13 -14 -32 -37 -50 -60 -45
-67 -54 -54 -67 8 -8 11 -8 11 0 0 7 8 14 18 17 10 4 29 16 41 27 24 23 62 19
42 -5 -6 -7 -8 -16 -4 -19 3 -4 1 -13 -6 -21 -9 -11 -9 -15 1 -18 13 -5 3 -20
-34 -56 -13 -11 -14 -19 -7 -29 15 -17 6 -38 -17 -38 -12 0 -21 -9 -24 -26 -6
-30 -74 -93 -92 -86 -7 3 -4 6 7 7 18 1 19 1 3 11 -22 12 -24 31 -3 23 10 -4
15 0 15 14 0 11 8 22 18 24 9 3 24 18 32 34 8 16 18 31 21 34 11 9 20 50 11
50 -5 0 -17 -9 -27 -20 -10 -11 -24 -20 -32 -20 -7 0 -13 -7 -13 -16 0 -10 -6
-14 -15 -10 -9 3 -15 0 -15 -10 0 -9 -5 -12 -11 -8 -7 4 7 24 36 51 49 47 58
84 21 91 -12 3 -16 0 -11 -8 8 -13 -32 -60 -52 -60 -7 0 -13 -4 -13 -9 0 -5
-12 -11 -26 -14 l-26 -5 31 32 c17 18 31 37 31 43 0 21 -23 26 -36 8 -18 -24
-101 -30 -123 -7 -15 15 -15 15 1 10 10 -4 19 -1 22 9 9 21 -3 31 -14 13 -5
-8 -12 -11 -16 -8 -12 13 4 33 42 53 22 11 42 24 46 30 5 6 8 5 8 -2 0 -14 85
14 123 41 28 19 27 19 27 -4z m-4158 -31 c21 -5 36 -14 33 -19 -3 -5 -13 -6
-23 -3 -14 5 -15 4 -4 -8 12 -13 44 -18 127 -19 24 0 27 -3 15 -11 -11 -8 -7
-9 19 -5 30 5 32 4 20 -10 -12 -15 -10 -16 17 -10 23 5 37 2 58 -15 15 -12 30
-18 34 -15 3 4 0 12 -8 17 -12 8 -10 9 9 7 34 -4 48 -30 35 -65 -9 -27 -11
-28 -74 -25 -63 2 -63 2 -45 -18 10 -11 24 -20 32 -20 7 0 13 -4 13 -10 0 -6
-9 -6 -22 -1 -13 5 -42 15 -65 22 -38 11 -45 10 -63 -6 -25 -23 -26 -39 -1
-25 14 7 27 6 45 -4 14 -7 23 -16 20 -19 -3 -3 8 -13 25 -22 26 -13 42 -35 26
-35 -20 0 -125 35 -125 42 0 4 -4 8 -10 8 -14 0 -110 46 -143 68 l-29 20 26 0
c14 0 23 -4 21 -8 -8 -13 23 -20 55 -13 19 3 30 1 30 -6 0 -6 11 -11 25 -11
14 0 25 6 25 13 0 22 -32 45 -114 81 l-78 33 31 14 c32 14 41 29 17 29 -7 0
-27 7 -42 15 -23 12 -25 15 -9 15 15 0 16 3 7 12 -32 32 -7 34 90 7z m270 -64
c-3 -5 -7 -4 -10 3 -2 7 -11 12 -20 12 -14 0 -14 2 -3 9 16 10 42 -8 33 -24z
m64 -2 c-10 -10 -19 5 -10 18 6 11 8 11 12 0 2 -7 1 -15 -2 -18z m4769 -89 c0
-10 8 -26 18 -34 22 -19 32 -81 11 -73 -8 3 -14 0 -14 -6 0 -6 5 -11 10 -11
16 0 11 -32 -7 -46 -16 -12 -15 -13 10 -14 27 0 36 -13 17 -25 -5 -3 -10 -17
-10 -31 0 -31 -25 -58 -45 -50 -10 4 -15 -1 -15 -14 0 -12 -7 -20 -17 -20 -14
0 -15 -2 -4 -9 9 -6 10 -11 2 -15 -6 -4 -11 -18 -11 -32 0 -13 -6 -24 -13 -24
-8 0 -19 -10 -26 -23 -7 -13 -22 -24 -34 -24 -34 -3 -107 -25 -113 -34 -6 -10
-74 -13 -74 -3 0 22 24 94 32 94 5 0 27 18 48 39 36 36 39 41 25 55 -14 14
-13 17 10 32 14 9 25 22 25 29 0 8 9 17 20 20 11 3 20 11 20 17 0 5 -6 8 -14
5 -17 -7 -28 16 -20 38 4 8 12 15 19 15 8 0 15 14 17 33 2 24 8 33 26 35 25 4
28 12 10 30 -9 9 -9 12 0 12 7 0 12 8 12 18 0 11 12 22 33 28 41 14 52 12 52
-12z m-5665 -24 c0 -5 -5 -10 -11 -10 -5 0 -7 5 -4 10 3 6 8 10 11 10 2 0 4
-4 4 -10z m-235 -40 c3 -5 -1 -10 -9 -10 -9 0 -16 5 -16 10 0 6 4 10 9 10 6 0
13 -4 16 -10z m4871 -57 c-10 -10 -19 5 -10 18 6 11 8 11 12 0 2 -7 1 -15 -2
-18z m-386 -3 c0 -5 -4 -10 -10 -10 -5 0 -10 5 -10 10 0 6 5 10 10 10 6 0 10
-4 10 -10z m-3270 -81 c-13 -24 -33 -20 -39 7 -3 16 -1 17 13 5 18 -15 19 -13
17 44 l0 30 10 -33 c7 -22 6 -39 -1 -53z m3300 21 c0 -5 11 -10 23 -10 33 0
40 -10 21 -31 -9 -10 -14 -26 -10 -35 5 -13 2 -15 -13 -11 -12 3 -22 -1 -25
-9 -3 -8 -10 -14 -17 -14 -7 0 -9 13 -4 39 4 25 2 41 -5 46 -8 5 -8 11 1 21
13 16 29 18 29 4z m37 4 c-3 -3 -12 -4 -19 -1 -8 3 -5 6 6 6 11 1 17 -2 13 -5z
m-3043 -43 c3 -4 -1 -16 -8 -27 -12 -15 -16 -16 -30 -5 -24 20 -20 41 8 41 14
0 27 -4 30 -9z m3303 -13 c-3 -8 -6 -5 -6 6 -1 11 2 17 5 13 3 -3 4 -12 1 -19z
m-3677 2 c0 -5 -4 -10 -10 -10 -5 0 -10 5 -10 10 0 6 5 10 10 10 6 0 10 -4 10
-10z m595 0 c3 -5 1 -10 -4 -10 -6 0 -11 5 -11 10 0 6 2 10 4 10 3 0 8 -4 11
-10z m-85 -41 c8 -14 6 -16 -12 -11 -17 4 -20 2 -16 -15 6 -24 -10 -56 -19
-35 -2 6 -11 12 -18 12 -21 0 -28 19 -14 36 7 9 20 12 32 8 17 -5 19 -3 13 22
-7 24 -6 26 9 14 9 -7 20 -21 25 -31z m-480 21 c0 -5 -4 -10 -10 -10 -5 0 -10
5 -10 10 0 6 5 10 10 10 6 0 10 -4 10 -10z m120 -40 c0 -5 -4 -10 -10 -10 -5
0 -10 5 -10 10 0 6 5 10 10 10 6 0 10 -4 10 -10z m250 -16 c0 -37 -27 -61 -51
-46 -10 6 -26 9 -36 5 -17 -6 -17 -6 -1 10 9 9 21 17 27 17 6 0 11 9 11 20 0
15 7 20 25 20 20 0 25 -5 25 -26z m3037 4 c-3 -8 -6 -5 -6 6 -1 11 2 17 5 13
3 -3 4 -12 1 -19z m-3292 -38 c3 -5 -1 -10 -9 -10 -9 0 -16 5 -16 10 0 6 4 10
9 10 6 0 13 -4 16 -10z m-252 -12 c30 -14 34 -26 13 -34 -14 -5 -56 23 -56 38
0 11 12 10 43 -4z m104 -54 c-16 -17 -34 6 -29 37 l5 34 15 -33 c9 -17 13 -35
9 -38z m3578 48 c0 -18 -20 -15 -23 4 -3 10 1 15 10 12 7 -3 13 -10 13 -16z
m-95 4 c0 -3 -4 -8 -10 -11 -5 -3 -10 -1 -10 4 0 6 5 11 10 11 6 0 10 -2 10
-4z m-3735 -46 c3 -6 3 -10 -2 -10 -11 1 -43 26 -43 34 0 9 37 -11 45 -24z
m927 -1 c-2 -7 3 -16 9 -20 10 -6 10 -13 2 -31 l-12 -23 0 28 c-1 15 -5 27
-11 27 -5 0 -7 7 -4 15 4 9 0 15 -10 15 -9 0 -16 4 -16 10 0 6 9 6 23 1 12 -5
21 -15 19 -22z m-604 1 c20 -19 27 -30 19 -30 -2 0 -17 11 -33 25 -16 14 -24
25 -18 25 5 0 20 -9 32 -20z m3914 -63 c-23 -23 -42 -38 -42 -34 0 12 72 88
78 82 3 -3 -13 -25 -36 -48z m-4007 13 c3 -5 -1 -10 -10 -10 -9 0 -13 5 -10
10 3 6 8 10 10 10 2 0 7 -4 10 -10z m3641 -15 c-11 -8 -22 -12 -25 -9 -6 6 19
24 34 24 6 -1 1 -7 -9 -15z m64 -14 c0 -5 14 -13 32 -16 l32 -7 -23 -19 c-27
-22 -24 -30 13 -33 40 -2 40 -24 -1 -41 -19 -8 -41 -15 -47 -15 -26 0 -66 26
-66 43 0 10 -8 17 -20 17 -29 0 -25 11 17 48 37 31 63 41 63 23z m-1190 -116
c-7 -8 -17 -12 -22 -9 -6 4 -5 10 3 15 22 14 33 10 19 -6z m1290 -36 c0 -23
-4 -30 -15 -26 -8 4 -17 1 -21 -4 -4 -7 8 -10 32 -9 58 3 64 1 58 -14 -3 -8 4
-16 20 -20 28 -7 46 -50 28 -68 -6 -6 -8 -17 -5 -24 3 -8 1 -14 -5 -14 -6 0
-12 5 -14 12 -3 8 -23 12 -54 11 -27 0 -37 1 -21 4 15 2 27 11 27 19 0 8 13
17 30 21 17 3 30 9 30 14 0 13 -24 11 -37 -2 -14 -14 -54 5 -50 24 1 7 -6 11
-18 9 -11 -2 -36 -6 -55 -8 -31 -4 -33 -3 -13 7 24 13 27 49 4 49 -32 0 30 42
72 49 4 0 7 -13 7 -30z m393 -69 c-3 -11 -7 -20 -8 -20 -1 0 -5 9 -8 20 -3 12
0 20 8 20 8 0 11 -8 8 -20z m-24 -24 c9 -11 6 -12 -14 -8 -14 2 -22 8 -19 13
8 13 20 11 33 -5z m94 -40 l-4 -21 10 21 c10 22 41 40 41 24 0 -6 -4 -10 -10
-10 -5 0 -10 -10 -10 -22 0 -20 1 -20 18 -5 24 22 33 21 25 0 -13 -34 -46 -72
-68 -77 -13 -3 -31 -9 -41 -13 -13 -5 -16 -3 -11 10 5 14 0 17 -31 18 -20 1
-29 3 -19 6 9 2 15 8 12 13 -3 5 6 17 20 26 14 9 33 30 42 47 16 33 34 22 26
-17z m-818 24 c-3 -5 -13 -10 -21 -10 -8 0 -14 5 -14 10 0 6 9 10 21 10 11 0
17 -4 14 -10z m955 1 c0 -6 -4 -12 -9 -15 -14 -9 0 -48 15 -42 8 3 14 1 14 -5
0 -6 -12 -9 -27 -7 -20 2 -29 9 -31 26 -2 12 2 22 8 22 7 0 10 7 6 15 -3 9 0
15 9 15 8 0 15 -4 15 -9z m-240 -12 c0 -20 -34 -69 -47 -69 -24 0 -25 28 -1
53 24 26 48 34 48 16z m-2209 -40 l-21 -34 0 34 c0 25 3 32 15 27 8 -3 15 0
15 6 0 6 2 9 6 6 3 -3 -4 -21 -15 -39z m1614 21 c-3 -5 -12 -10 -18 -10 -7 0
-6 4 3 10 19 12 23 12 15 0z m-4137 -32 c-3 -7 -11 -13 -18 -13 -7 0 -15 6
-17 13 -3 7 4 12 17 12 13 0 20 -5 18 -12z m5056 -24 c9 -3 16 -12 16 -19 0
-14 -29 -29 -38 -20 -3 3 0 5 6 5 16 0 15 27 0 33 -7 3 -10 6 -6 6 3 1 13 -2
22 -5z m-502 -17 c-34 -13 -34 -27 2 -27 15 0 17 -3 8 -12 -9 -9 -15 -9 -24 0
-14 14 -28 16 -28 3 0 -5 10 -12 23 -15 l22 -7 -25 -10 c-34 -14 -71 -4 -63
18 4 9 -1 21 -11 29 -29 21 -12 29 61 31 64 1 66 1 35 -10z m468 -7 c0 -5 -2
-10 -4 -10 -3 0 -8 5 -11 10 -3 6 -1 10 4 10 6 0 11 -4 11 -10z m-715 -20
c-28 -12 -45 -12 -45 0 0 6 15 10 33 9 27 0 29 -2 12 -9z m-2785 -10 c0 -5 -2
-10 -4 -10 -3 0 -8 5 -11 10 -3 6 -1 10 4 10 6 0 11 -4 11 -10z m3180 0 c0 -5
-5 -10 -11 -10 -5 0 -7 5 -4 10 3 6 8 10 11 10 2 0 4 -4 4 -10z m-35 -50 c11
-17 -13 -47 -42 -53 -15 -3 -29 -1 -31 4 -2 5 -12 9 -22 9 -30 0 -33 19 -5 26
14 3 25 10 25 15 0 12 67 11 75 -1z m-548 -46 c-3 -3 -12 -4 -19 -1 -8 3 -5 6
6 6 11 1 17 -2 13 -5z m303 -44 c-68 -23 -92 -25 -65 -6 24 16 50 24 90 24 24
1 19 -3 -25 -18z m-20 -100 c0 -5 -4 -10 -10 -10 -5 0 -10 5 -10 10 0 6 5 10
10 10 6 0 10 -4 10 -10z m-256 -29 c3 -5 -6 -11 -21 -14 -26 -5 -26 -4 -8 9
22 17 22 17 29 5z m-467 -103 c-8 -4 -23 -5 -33 -1 -16 6 -16 7 2 13 26 10 52
0 31 -12z m863 -109 c0 -5 -11 -9 -25 -9 -24 0 -32 10 -19 22 8 8 44 -3 44
-13z m-293 -24 c0 -9 -10 -15 -23 -15 -34 0 -39 18 -7 23 16 2 28 5 29 6 0 0
1 -6 1 -14z m-107 -15 c11 -7 7 -10 -17 -10 -18 0 -33 5 -33 10 0 13 30 13 50
0z m-186 -62 c-3 -4 -11 -8 -17 -8 -7 0 -6 4 3 10 11 7 11 10 2 10 -7 0 -10 5
-6 11 4 8 9 7 15 -2 4 -7 5 -17 3 -21z m176 22 c0 -5 -4 -10 -9 -10 -6 0 -13
5 -16 10 -3 6 1 10 9 10 9 0 16 -4 16 -10z m220 -16 c0 -3 -5 -14 -10 -25 -11
-20 -70 -28 -70 -9 0 6 7 10 15 10 8 0 15 7 15 15 0 9 9 15 25 15 14 0 25 -3
25 -6z m109 -3 c20 -13 1 -19 -44 -13 -40 6 -40 6 -10 13 17 4 32 7 35 8 3 0
11 -3 19 -8z m-899 -11 c0 -5 -7 -7 -15 -4 -8 4 -15 8 -15 10 0 2 7 4 15 4 8
0 15 -4 15 -10z m70 -30 c0 -5 -7 -7 -15 -4 -8 4 -15 8 -15 10 0 2 7 4 15 4 8
0 15 -4 15 -10z m425 -33 c15 -4 14 -5 -7 -6 -19 -1 -31 6 -39 22 -11 21 -11
21 7 6 10 -10 28 -19 39 -22z m95 -17 c0 -5 -4 -10 -9 -10 -6 0 -13 5 -16 10
-3 6 1 10 9 10 9 0 16 -4 16 -10z m149 1 c11 -7 9 -10 -8 -16 -11 -3 -21 -14
-21 -22 0 -14 -3 -14 -18 3 -18 18 -18 19 2 30 27 15 28 15 45 5z m-1144 -71
c4 -6 10 -8 15 -5 4 3 13 -1 19 -8 17 -21 -13 -56 -47 -54 -20 2 -28 8 -30 25
-5 36 27 67 43 42z m955 -14 c0 -9 -30 -14 -35 -6 -4 6 3 10 14 10 12 0 21 -2
21 -4z m165 -26 c3 -5 -3 -10 -15 -10 -12 0 -18 5 -15 10 3 6 10 10 15 10 5 0
12 -4 15 -10z m-290 -50 c3 -5 1 -10 -4 -10 -6 0 -11 5 -11 10 0 6 2 10 4 10
3 0 8 -4 11 -10z m-35 -9 c0 -6 -5 -13 -10 -16 -11 -7 6 -28 30 -38 9 -3 3 -6
-13 -6 -21 -1 -30 5 -37 25 -6 14 -8 30 -4 35 7 12 34 12 34 0z m-1520 -142
c0 -11 -4 -18 -10 -14 -5 3 -7 12 -3 20 7 21 13 19 13 -6z m0 -97 c-1 -22 -45
-54 -68 -50 -29 6 -19 37 18 56 39 20 50 19 50 -6z m-65 -242 c9 -27 -13 -56
-29 -39 -8 8 -8 13 2 16 23 9 13 33 -14 33 -22 0 -24 2 -14 15 15 18 46 4 55
-25z m-573 -60 c-4 -45 -6 -50 -28 -50 -33 0 -32 36 3 72 15 15 27 28 27 28 1
0 -1 -22 -2 -50z m278 -10 c0 -11 -4 -20 -9 -20 -7 0 -8 17 -2 38 4 10 11 -2
11 -18z m-416 -5 c3 -8 17 -15 31 -15 20 0 25 -5 25 -23 0 -38 -53 -55 -102
-33 -24 11 -23 22 2 29 14 3 20 14 20 31 0 28 14 35 24 11z"/>
<path d="M7528 7293 c7 -3 16 -2 19 1 4 3 -2 6 -13 5 -11 0 -14 -3 -6 -6z"/>
<path d="M1950 8120 c0 -5 5 -10 11 -10 5 0 7 5 4 10 -3 6 -8 10 -11 10 -2 0
-4 -4 -4 -10z"/>
<path d="M2192 8049 c2 -6 8 -10 13 -10 5 0 11 4 13 10 2 6 -4 11 -13 11 -9 0
-15 -5 -13 -11z"/>
<path d="M1845 8010 c-9 -15 -1 -23 21 -18 15 3 16 4 1 16 -11 9 -17 10 -22 2z"/>
<path d="M1910 8000 c0 -5 14 -10 31 -10 17 0 28 4 24 10 -3 6 -17 10 -31 10
-13 0 -24 -4 -24 -10z"/>
<path d="M2250 8000 c0 -5 17 -10 38 -10 27 0 33 -3 22 -10 -12 -8 -9 -10 13
-10 27 0 36 13 16 25 -19 12 -89 16 -89 5z"/>
<path d="M1630 7850 c0 -5 9 -10 21 -10 11 0 17 5 14 10 -3 6 -13 10 -21 10
-8 0 -14 -4 -14 -10z"/>
<path d="M1643 7783 c9 -2 23 -2 30 0 6 3 -1 5 -18 5 -16 0 -22 -2 -12 -5z"/>
<path d="M1715 7470 c-3 -5 3 -10 15 -10 12 0 18 5 15 10 -3 6 -10 10 -15 10
-5 0 -12 -4 -15 -10z"/>
<path d="M1780 7429 c0 -5 5 -7 10 -4 6 3 10 8 10 11 0 2 -4 4 -10 4 -5 0 -10
-5 -10 -11z"/>
<path d="M1625 7290 c7 -12 55 -14 55 -2 0 4 -14 8 -30 9 -18 1 -28 -2 -25 -7z"/>
<path d="M1680 7210 c-13 -9 -13 -11 0 -20 22 -15 30 -12 30 10 0 22 -8 25
-30 10z"/>
<path d="M3079 7083 c8 -3 30 -16 49 -29 32 -22 52 -24 52 -4 0 13 -60 40 -89
39 -14 0 -20 -3 -12 -6z"/>
<path d="M3278 7022 c3 -9 16 -27 29 -40 l23 -23 0 24 c0 25 -12 39 -42 50
-13 5 -15 2 -10 -11z"/>
<path d="M2995 6970 c-3 -5 -1 -10 4 -10 6 0 11 5 11 10 0 6 -2 10 -4 10 -3 0
-8 -4 -11 -10z"/>
<path d="M3390 6950 c-15 -28 -4 -39 17 -17 13 12 14 20 6 28 -8 8 -14 5 -23
-11z"/>
<path d="M3221 6927 c7 -15 16 -27 21 -27 14 0 9 16 -13 36 -21 19 -21 19 -8
-9z"/>
<path d="M2674 6915 c0 -14 5 -24 9 -22 5 1 8 6 8 10 -1 4 -1 14 -1 22 0 8 -4
15 -9 15 -5 0 -8 -11 -7 -25z"/>
<path d="M3000 6919 c0 -5 5 -7 10 -4 6 3 10 8 10 11 0 2 -4 4 -10 4 -5 0 -10
-5 -10 -11z"/>
<path d="M2555 6910 c3 -5 14 -10 23 -10 15 0 15 2 2 10 -20 13 -33 13 -25 0z"/>
<path d="M2840 6910 c0 -5 5 -10 10 -10 6 0 15 -11 20 -25 5 -14 14 -25 20
-25 6 0 5 8 -2 22 -24 41 -48 60 -48 38z"/>
<path d="M2558 6859 c22 -24 15 -47 -13 -41 -15 2 -25 0 -25 -7 0 -6 4 -11 9
-11 5 0 11 -8 13 -17 2 -12 14 -18 41 -19 37 -1 39 0 33 27 -3 18 -1 29 9 33
8 3 14 2 14 -2 -4 -27 3 -42 21 -42 21 0 29 33 10 45 -5 3 -10 10 -10 16 0 13
34 11 48 -3 7 -7 12 -9 12 -4 0 13 -28 36 -44 36 -9 0 -16 -5 -16 -11 0 -6 -6
-9 -12 -6 -7 2 -18 -3 -25 -12 -10 -14 -13 -14 -30 0 -10 9 -25 20 -33 24 -12
6 -13 5 -2 -6z"/>
<path d="M2750 6850 c0 -5 5 -10 10 -10 6 0 10 5 10 10 0 6 -4 10 -10 10 -5 0
-10 -4 -10 -10z"/>
<path d="M2771 6821 c-20 -5 -21 -8 -9 -19 22 -18 98 -43 98 -31 0 5 -16 17
-35 26 -19 9 -32 20 -29 25 3 4 4 8 2 7 -2 -1 -14 -4 -27 -8z"/>
<path d="M2715 6750 c-3 -11 -14 -20 -23 -20 -14 0 -14 2 -3 9 11 7 9 10 -8
16 -26 8 -40 0 -37 -23 2 -12 14 -18 39 -20 21 -2 38 1 38 7 3 21 4 26 12 39
5 6 4 12 -2 12 -5 0 -13 -9 -16 -20z"/>
<path d="M2760 6764 c0 -13 21 -42 34 -47 10 -4 12 0 8 16 -5 21 -19 37 -34
37 -5 0 -8 -3 -8 -6z"/>
<path d="M2595 6730 c4 -6 11 -8 16 -5 14 9 11 15 -7 15 -8 0 -12 -5 -9 -10z"/>
<path d="M2680 6680 c0 -5 5 -10 10 -10 6 0 10 5 10 10 0 6 -4 10 -10 10 -5 0
-10 -4 -10 -10z"/>
<path d="M2478 6663 c7 -3 16 -2 19 1 4 3 -2 6 -13 5 -11 0 -14 -3 -6 -6z"/>
<path d="M2720 6654 c0 -14 36 -33 63 -34 29 0 32 6 17 30 -6 10 -10 11 -10 3
0 -7 -11 -13 -25 -13 -14 0 -25 5 -25 10 0 6 -4 10 -10 10 -5 0 -10 -3 -10 -6z"/>
<path d="M2604 6638 c-4 -6 0 -16 9 -23 10 -7 17 -16 17 -21 0 -5 10 -15 22
-23 19 -12 20 -14 5 -23 -38 -21 -3 -56 61 -61 12 -1 26 -7 30 -13 4 -6 18
-13 31 -17 20 -5 23 -3 18 19 -3 16 0 24 10 24 8 0 11 5 8 10 -4 6 -11 7 -17
4 -6 -4 -9 -1 -6 7 3 8 15 13 27 12 21 -3 22 -2 4 21 -13 18 -37 29 -89 41
-40 9 -82 25 -95 35 -26 23 -26 23 -35 8z m129 -110 c-9 -15 -23 -8 -23 12 0
17 2 19 14 8 8 -7 12 -16 9 -20z"/>
<path d="M7075 6570 c4 -6 11 -8 16 -5 14 9 11 15 -7 15 -8 0 -12 -5 -9 -10z"/>
<path d="M2560 6546 c0 -11 9 -16 26 -16 31 0 28 23 -4 28 -15 2 -22 -2 -22
-12z"/>
<path d="M7150 6545 c0 -18 -26 -20 -33 -2 -3 6 -6 8 -6 2 0 -5 3 -16 8 -24 7
-11 13 -10 35 4 14 9 23 21 20 26 -8 14 -24 10 -24 -6z"/>
<path d="M4649 6543 c-17 -4 -34 -43 -20 -43 10 0 46 39 40 43 -2 2 -11 2 -20
0z"/>
<path d="M2537 6507 c-4 -10 5 -14 31 -14 21 0 27 2 15 4 -13 2 -23 9 -23 14
0 14 -17 11 -23 -4z"/>
<path d="M2453 6493 c-30 -4 -48 -23 -22 -23 5 0 7 -4 4 -10 -3 -5 1 -10 10
-10 9 0 13 5 10 10 -9 15 12 12 45 -5 60 -31 25 -44 -68 -26 -24 5 -41 6 -40
2 2 -3 10 -19 18 -34 13 -26 17 -28 54 -22 23 4 56 11 75 17 21 6 36 7 40 1 6
-10 65 -33 83 -33 5 0 6 9 3 20 -5 16 -2 20 19 20 36 0 40 15 10 39 -32 25
-57 27 -74 6 -15 -18 -45 -12 -76 16 -11 11 -30 19 -43 19 -12 0 -19 4 -16 10
3 6 5 9 3 8 -2 0 -18 -3 -35 -5z m187 -103 c0 -5 -2 -10 -4 -10 -3 0 -8 5 -11
10 -3 6 -1 10 4 10 6 0 11 -4 11 -10z"/>
<path d="M2738 6413 c7 -3 16 -2 19 1 4 3 -2 6 -13 5 -11 0 -14 -3 -6 -6z"/>
<path d="M2280 6400 c0 -5 7 -10 16 -10 8 0 12 5 9 10 -3 6 -10 10 -16 10 -5
0 -9 -4 -9 -10z"/>
<path d="M2310 6356 c0 -8 8 -13 18 -12 12 1 16 -5 14 -19 -2 -11 -9 -23 -14
-26 -12 -8 30 -39 52 -38 10 0 9 3 -5 9 -19 7 -19 8 -1 15 11 5 21 3 27 -6 6
-9 9 -10 9 -2 0 6 -10 19 -22 28 -19 13 -21 17 -8 25 12 7 11 10 -5 15 -11 4
-28 11 -37 16 -24 12 -28 11 -28 -5z"/>
<path d="M5340 6360 c0 -5 5 -10 10 -10 6 0 10 5 10 10 0 6 -4 10 -10 10 -5 0
-10 -4 -10 -10z"/>
<path d="M5380 6360 c0 -13 20 -13 40 0 12 8 9 10 -12 10 -16 0 -28 -4 -28
-10z"/>
<path d="M2452 6335 c-7 -8 -9 -15 -5 -15 4 -1 25 -3 46 -6 30 -5 37 -3 37 11
0 13 -6 16 -25 13 -14 -3 -25 -1 -25 3 0 13 -13 10 -28 -6z"/>
<path d="M4556 6324 c-4 -9 -4 -19 -1 -22 2 -3 7 3 11 12 4 9 4 19 1 22 -2 3
-7 -3 -11 -12z"/>
<path d="M5300 6329 c0 -5 5 -7 10 -4 6 3 10 8 10 11 0 2 -4 4 -10 4 -5 0 -10
-5 -10 -11z"/>
<path d="M2255 6240 c-3 -5 -2 -10 4 -10 5 0 13 5 16 10 3 6 2 10 -4 10 -5 0
-13 -4 -16 -10z"/>
<path d="M2360 6236 c0 -7 9 -16 20 -19 23 -6 26 3 8 21 -16 16 -28 15 -28 -2z"/>
<path d="M2302 6219 c-8 -11 -9 -18 -3 -14 6 3 23 -3 37 -14 34 -27 53 -27 29
-1 -10 11 -24 20 -31 20 -7 0 -14 7 -16 15 -2 12 -6 11 -16 -6z"/>
<path d="M2400 6180 c0 -5 5 -10 10 -10 6 0 10 5 10 10 0 6 -4 10 -10 10 -5 0
-10 -4 -10 -10z"/>
<path d="M6805 6168 c-30 -18 -30 -18 -5 -17 14 1 35 4 48 7 21 6 21 8 5 18
-14 8 -25 7 -48 -8z"/>
<path d="M5796 6123 c-3 -3 -3 -10 0 -14 7 -12 34 -11 34 0 0 11 -26 22 -34
14z"/>
<path d="M3153 6105 c-9 -10 -10 -16 -2 -21 15 -9 36 13 24 25 -6 6 -15 4 -22
-4z"/>
<path d="M3184 6086 c-3 -9 -1 -23 5 -30 9 -11 9 -16 0 -21 -6 -4 -14 -3 -18
2 -8 13 -43 27 -59 24 -8 -1 -19 2 -25 7 -16 13 -69 18 -84 9 -11 -7 -25 -5
-88 10 -17 3 -17 2 -5 -7 11 -8 -1 -9 -46 -4 -48 5 -64 3 -70 -8 -5 -8 -27
-18 -49 -24 -22 -5 -39 -15 -37 -22 1 -7 -2 -12 -7 -12 -5 0 -17 -3 -27 -7
-12 -4 -15 -3 -10 5 5 8 -2 12 -21 11 -15 0 -22 -3 -15 -6 8 -3 -3 -13 -27
-25 -39 -19 -67 -53 -33 -41 15 6 15 5 3 -10 -7 -9 -11 -24 -7 -32 3 -8 1 -15
-3 -15 -5 0 -7 -9 -4 -20 3 -11 9 -18 13 -15 4 3 10 -4 13 -15 3 -11 1 -23 -4
-26 -14 -8 -10 -34 4 -28 10 4 13 -3 9 -28 -2 -18 -8 -38 -13 -44 -15 -19 6
-195 30 -246 12 -27 26 -48 32 -48 6 0 9 -7 5 -15 -6 -16 6 -28 64 -68 19 -13
34 -29 33 -35 -2 -7 9 -12 23 -12 14 0 35 -5 47 -12 34 -18 90 -18 109 -1 11
10 28 13 45 10 15 -3 40 2 58 12 33 18 39 22 104 78 43 37 43 37 72 21 l29
-17 0 29 c0 16 5 32 10 35 6 3 10 15 10 25 0 10 7 26 16 35 9 8 13 22 10 31
-3 8 1 17 9 20 8 4 20 25 25 48 6 22 18 55 28 73 14 27 14 38 4 66 -6 18 -14
55 -17 82 -11 99 -46 187 -92 234 -35 35 -44 40 -49 27z m-117 -269 c-19 -29
-67 -36 -67 -10 0 37 32 57 63 41 17 -8 17 -12 4 -31z"/>
<path d="M5300 6040 c0 -5 7 -10 15 -10 8 0 15 5 15 10 0 6 -7 10 -15 10 -8 0
-15 -4 -15 -10z"/>
<path d="M6720 5934 c0 -8 10 -12 25 -10 37 4 40 13 5 18 -20 3 -30 0 -30 -8z"/>
<path d="M4405 5629 c-4 -11 -4 -23 0 -27 7 -7 25 17 25 36 0 20 -18 14 -25
-9z"/>
<path d="M4196 5623 c-6 -14 -5 -15 5 -6 7 7 10 15 7 18 -3 3 -9 -2 -12 -12z"/>
<path d="M4470 5624 c0 -8 5 -12 10 -9 6 4 8 11 5 16 -9 14 -15 11 -15 -7z"/>
<path d="M3539 5483 c-1 -4 -1 -11 0 -15 0 -5 -3 -8 -9 -8 -5 0 -10 -6 -10
-14 0 -13 -19 -26 -50 -32 -73 -15 -84 -20 -93 -49 -17 -58 -16 -74 5 -81 20
-6 58 -39 58 -50 0 -3 -10 -4 -22 -3 -37 4 -93 -12 -77 -21 7 -5 16 -7 20 -4
4 2 5 -5 2 -17 -3 -11 -12 -23 -19 -26 -19 -7 -18 -23 1 -23 8 0 15 -5 15 -11
0 -5 -6 -7 -12 -3 -10 6 -10 4 0 -7 6 -7 12 -21 12 -31 0 -10 3 -18 8 -17 20
3 51 -15 55 -33 6 -20 6 -20 34 -1 15 11 45 27 66 37 25 12 37 23 33 32 -3 9
3 16 18 20 23 5 23 7 10 50 -14 47 -12 50 40 45 44 -4 47 46 6 87 -16 17 -30
40 -30 51 0 13 -6 21 -17 21 -15 0 -14 2 3 15 18 13 18 14 1 15 -14 0 -17 5
-12 20 4 11 2 20 -4 20 -6 0 -11 6 -11 14 0 16 -19 33 -21 19z m-24 -143 c3
-5 1 -10 -4 -10 -6 0 -11 5 -11 10 0 6 2 10 4 10 3 0 8 -4 11 -10z m33 -38 c2
-8 -3 -10 -14 -5 -13 5 -16 3 -11 -10 3 -9 2 -17 -3 -17 -11 0 -13 11 -4 35 7
17 25 16 32 -3z m-128 -97 c0 -8 -4 -15 -10 -15 -5 0 -10 7 -10 15 0 8 5 15
10 15 6 0 10 -7 10 -15z m138 -20 c-1 -20 -4 -38 -8 -40 -4 -3 -6 6 -5 18 1
12 3 30 4 40 2 33 10 17 9 -18z"/>
<path d="M3785 5441 c-8 -26 5 -73 19 -68 15 5 15 87 -1 87 -6 0 -14 -9 -18
-19z"/>
<path d="M3271 5394 c0 -11 3 -14 6 -6 3 7 2 16 -1 19 -3 4 -6 -2 -5 -13z"/>
<path d="M3718 5213 c7 -3 16 -2 19 1 4 3 -2 6 -13 5 -11 0 -14 -3 -6 -6z"/>
<path d="M4414 5164 c-13 -30 -13 -38 -2 -45 32 -21 55 -1 54 46 -1 46 -33 46
-52 -1z"/>
<path d="M3690 4723 c0 -5 -17 -9 -37 -9 -21 -1 -56 -3 -78 -4 -22 -1 -47 -1
-55 0 -20 2 -166 -9 -210 -16 -75 -12 -167 -48 -208 -82 -75 -60 -190 -254
-213 -358 -17 -79 -17 -278 1 -299 7 -8 9 -15 5 -15 -4 0 4 -15 18 -33 14 -19
29 -50 32 -71 4 -20 14 -44 22 -52 9 -9 13 -24 9 -38 -3 -13 -3 -26 1 -30 10
-9 4 -82 -9 -131 -6 -22 -10 -46 -9 -53 1 -8 -2 -19 -8 -26 -6 -7 -8 -36 -5
-67 3 -30 5 -69 4 -87 0 -20 6 -35 15 -38 10 -4 15 -20 15 -45 0 -35 3 -39 24
-39 14 0 28 -4 31 -10 3 -5 11 -10 16 -10 6 0 7 4 4 10 -3 6 1 7 9 4 9 -3 16
-10 16 -15 0 -5 8 -9 19 -9 10 0 24 -7 31 -15 7 -8 17 -15 22 -15 6 0 22 -9
37 -19 15 -11 39 -23 54 -26 15 -4 27 -11 27 -17 0 -5 4 -7 10 -3 5 3 31 -10
58 -29 59 -43 88 -54 155 -61 30 -3 57 -12 63 -20 13 -17 48 -14 92 8 17 8 38
7 85 -4 34 -8 91 -13 127 -13 41 1 58 -2 45 -7 -17 -6 -16 -8 9 -8 16 -1 37 5
45 13 13 11 28 12 78 4 53 -9 64 -8 78 6 9 9 22 17 28 17 7 1 23 3 37 4 14 2
32 -1 41 -6 12 -6 21 -3 30 7 17 20 55 36 96 39 17 1 39 9 48 18 20 20 35 21
66 5 52 -28 72 -47 63 -60 -5 -7 -9 -31 -9 -53 0 -33 4 -42 27 -53 22 -10 31
-10 48 0 11 7 20 21 20 30 0 14 8 18 34 18 19 0 42 7 50 16 9 9 31 20 50 25
23 6 33 15 32 27 0 10 12 23 32 31 19 9 31 20 28 28 -4 8 3 13 18 13 13 0 26
7 30 15 3 8 17 15 31 15 14 0 25 5 25 11 0 5 14 15 30 21 17 5 35 19 41 29 5
11 20 19 34 19 13 0 30 7 38 15 8 7 27 17 42 21 14 4 29 14 33 23 3 9 11 21
16 26 19 18 95 65 105 65 6 0 15 17 20 38 14 47 14 62 1 62 -5 0 -10 7 -10 16
0 8 -4 12 -10 9 -5 -3 -24 2 -42 12 -18 9 -36 17 -40 18 -3 0 -10 3 -14 8 -13
13 -24 8 -35 -17 -6 -13 -22 -30 -35 -37 -14 -7 -33 -27 -44 -43 -10 -17 -37
-42 -60 -56 -23 -14 -51 -33 -61 -42 -11 -10 -30 -18 -43 -18 -13 0 -26 -4
-28 -9 -5 -15 -89 -15 -128 -1 -55 20 -64 26 -75 47 -6 11 -29 39 -52 62 -42
41 -43 41 -100 36 -32 -3 -74 -11 -94 -17 -35 -10 -73 -9 -67 3 2 3 -9 20 -24
38 -20 23 -26 37 -19 49 4 9 6 23 4 30 -4 10 -10 9 -25 -5 -19 -17 -20 -17
-29 0 -6 9 -17 17 -25 17 -11 0 -14 8 -12 28 1 15 -1 46 -5 68 -7 35 -14 44
-48 60 -21 11 -39 26 -39 34 0 28 17 43 43 38 45 -9 41 16 -21 145 -2 4 3 7
11 7 18 0 26 21 28 70 1 43 19 121 31 137 5 6 7 22 4 35 -3 12 -7 44 -10 70
-5 44 -31 97 -48 98 -5 0 -8 7 -8 15 0 8 -4 15 -10 15 -5 0 -10 5 -10 12 0 21
-42 99 -56 105 -8 3 -14 10 -14 16 0 17 -109 116 -135 123 -14 3 -25 9 -25 13
0 12 -48 31 -78 31 -15 0 -36 7 -46 15 -11 8 -35 15 -53 15 -18 0 -33 5 -33
10 0 6 -4 10 -10 10 -5 0 -10 -3 -10 -7z"/>
<path d="M7965 4080 c3 -5 8 -10 11 -10 2 0 4 5 4 10 0 6 -5 10 -11 10 -5 0
-7 -4 -4 -10z"/>
<path d="M7812 3924 c10 -10 20 -16 22 -13 3 3 -5 11 -17 18 -21 13 -21 12 -5
-5z"/>
<path d="M7852 3927 c26 -26 63 -41 98 -38 19 2 37 5 40 7 8 8 -24 24 -47 24
-13 0 -23 5 -23 10 0 6 -18 10 -41 10 -34 0 -38 -2 -27 -13z"/>
<path d="M7997 3880 c-3 -11 -2 -22 2 -24 4 -3 8 6 9 20 2 29 -4 31 -11 4z"/>
<path d="M7860 3840 c0 -5 5 -10 10 -10 6 0 10 5 10 10 0 6 -4 10 -10 10 -5 0
-10 -4 -10 -10z"/>
<path d="M7935 3830 c3 -5 21 -10 38 -10 24 0 28 3 17 10 -20 13 -63 13 -55 0z"/>
<path d="M7890 3820 c0 -5 -7 -10 -15 -10 -18 0 -20 -16 -2 -23 7 -4 3 -8 -10
-12 -36 -11 -27 -25 17 -25 29 0 40 -4 40 -15 0 -15 -15 -15 -115 1 -23 3 -27
2 -17 -8 20 -20 14 -27 -30 -31 -36 -3 -39 -5 -20 -11 24 -9 30 -25 10 -28 -7
0 7 -4 32 -7 50 -7 53 -26 3 -26 -17 0 -35 -3 -39 -7 -4 -5 3 -8 15 -8 16 0
26 -9 34 -30 8 -22 18 -30 37 -31 15 -1 7 -5 -20 -10 -68 -13 -78 -18 -60 -29
8 -5 24 -7 35 -3 18 5 18 4 6 -11 -13 -15 -13 -19 0 -27 10 -7 0 -9 -31 -5
-25 3 -38 3 -29 0 22 -7 10 -58 -15 -62 -23 -5 -48 18 -43 38 3 13 -2 15 -25
12 -33 -5 -33 -25 0 -30 12 -2 22 -10 22 -18 0 -8 10 -18 22 -23 35 -13 5 -20
-41 -10 -24 5 -49 8 -55 5 -6 -2 -3 -5 7 -5 9 -1 17 -6 17 -12 0 -5 14 -15 30
-20 17 -6 30 -15 30 -20 0 -5 9 -9 20 -9 11 0 20 -4 20 -9 0 -15 -33 -23 -41
-10 -5 9 -13 7 -30 -5 -13 -9 -43 -16 -68 -16 -35 0 -42 -3 -33 -12 18 -18 14
-36 -10 -44 l-21 -6 24 -14 c22 -12 22 -13 4 -14 -11 0 -27 -6 -35 -13 -20
-16 -26 -97 -8 -108 7 -5 -4 -6 -27 -2 -33 5 -38 3 -27 -8 17 -18 15 -29 -4
-29 -14 0 -14 -2 -3 -16 7 -9 22 -20 34 -25 14 -7 8 -8 -25 -5 -25 2 -37 2
-27 -1 24 -6 21 -33 -4 -33 -11 0 -28 -7 -36 -16 -13 -12 -18 -13 -24 -3 -4 8
-11 10 -15 6 -10 -10 17 -39 33 -33 16 7 43 -3 43 -15 0 -5 -14 -9 -30 -9 -18
0 -33 -6 -36 -15 -4 -8 -12 -15 -19 -15 -20 0 -29 -20 -16 -33 19 -19 13 -40
-10 -34 -12 3 -28 0 -36 -9 -8 -8 -10 -14 -5 -14 17 0 21 -50 4 -59 -12 -7
-11 -11 8 -24 13 -9 17 -17 11 -22 -18 -11 -12 -19 27 -38 21 -10 46 -31 55
-47 19 -31 77 -56 105 -45 9 4 38 8 64 10 25 1 61 10 79 19 18 9 45 16 61 16
36 0 37 20 1 21 -23 1 -24 2 -6 6 12 2 27 10 33 18 9 11 7 16 -9 24 -11 6 -21
7 -23 2 -6 -18 -83 -15 -127 6 l-44 21 46 -2 c26 0 47 -4 47 -8 0 -3 16 -2 35
3 47 13 125 18 125 7 0 -4 19 -9 43 -10 l42 -1 -45 -7 -45 -7 40 -1 c22 0 51
4 65 8 l25 8 -30 7 c-18 4 -35 16 -40 28 -10 23 -55 37 -55 18 0 -6 -7 -11
-15 -11 -23 0 -18 17 8 24 12 3 46 6 75 6 44 0 57 4 76 25 26 28 46 32 46 9 0
-20 38 -10 60 16 9 10 27 17 43 16 15 -1 27 2 27 6 0 4 7 8 16 8 14 0 54 35
54 46 0 2 -12 -4 -27 -12 -16 -7 -48 -14 -73 -13 l-45 0 38 17 c20 9 37 20 37
25 0 4 -4 6 -9 3 -5 -3 -24 0 -42 6 -34 12 -34 12 -9 19 16 4 19 7 8 8 -10 1
-18 9 -18 19 0 14 -2 15 -10 2 -9 -13 -10 -13 -10 0 0 23 12 37 45 54 22 12
25 16 11 16 -18 0 -18 1 -2 19 20 22 12 30 -27 26 -38 -5 -30 17 11 27 18 5
32 13 32 18 0 12 -13 13 -25 1 -6 -4 -23 -12 -39 -15 -25 -6 -28 -5 -17 7 6 8
23 18 36 21 14 4 25 11 25 16 0 8 -41 36 -47 32 -11 -7 -13 1 -4 12 6 7 9 20
6 27 -7 21 6 34 45 46 33 10 32 11 -20 7 l-55 -4 30 25 c17 13 37 25 45 25 8
0 22 5 30 10 11 8 -1 9 -40 6 -35 -3 -44 -3 -25 2 20 5 30 14 29 25 -1 9 2 17
7 17 5 0 9 5 9 11 0 6 -7 9 -15 5 -21 -8 -68 11 -60 24 4 6 16 8 28 5 17 -5
19 -4 7 4 -8 6 -10 11 -5 11 6 0 -1 7 -15 15 -28 15 -26 16 50 33 42 9 43 10
12 11 l-33 1 27 35 26 35 -28 1 c-16 1 -55 1 -86 1 -44 -1 -58 3 -58 14 0 8 9
14 20 14 11 0 20 -4 20 -10 0 -5 5 -10 11 -10 5 0 7 5 3 12 -5 8 6 10 42 5 45
-5 47 -5 19 6 -17 7 -41 22 -53 35 -12 12 -28 22 -34 22 -7 1 2 7 20 15 17 8
32 19 32 24 0 6 18 14 40 17 22 4 37 10 35 14 -3 5 -14 6 -26 3 -17 -5 -20 -2
-17 13 3 15 11 18 36 16 23 -1 32 2 32 13 0 11 -7 14 -25 9 -16 -4 -25 -2 -25
6 0 7 6 10 14 7 8 -3 17 0 19 8 4 9 -4 13 -27 13 -19 0 -43 5 -54 11 -11 6
-31 11 -44 11 -19 0 -20 -2 -8 -11 11 -8 9 -9 -10 -3 -35 9 -36 12 -14 29 17
13 17 14 2 15 -10 0 -18 -4 -18 -10z m80 -54 c0 -3 -4 -8 -10 -11 -5 -3 -10
-1 -10 4 0 6 5 11 10 11 6 0 10 -2 10 -4z m40 0 c0 -3 -4 -8 -10 -11 -5 -3
-10 -1 -10 4 0 6 5 11 10 11 6 0 10 -2 10 -4z m-170 -82 c0 -8 -4 -12 -10 -9
-5 3 -10 10 -10 16 0 5 5 9 10 9 6 0 10 -7 10 -16z m-40 2 c0 -11 -19 -15 -25
-6 -3 5 1 10 9 10 9 0 16 -2 16 -4z m60 -276 c0 -5 -2 -10 -4 -10 -3 0 -8 5
-11 10 -3 6 -1 10 4 10 6 0 11 -4 11 -10z m160 -90 c0 -5 -4 -10 -10 -10 -5 0
-10 5 -10 10 0 6 5 10 10 10 6 0 10 -4 10 -10z m-180 -20 c0 -5 -11 -10 -25
-10 -14 0 -25 5 -25 10 0 6 11 10 25 10 14 0 25 -4 25 -10z m-267 -147 c-7 -2
-19 -2 -25 0 -7 3 -2 5 12 5 14 0 19 -2 13 -5z m-34 -219 c10 -9 -45 -3 -59 6
-11 7 -5 8 20 4 19 -4 37 -8 39 -10z m481 -82 c0 -4 -15 -8 -32 -9 -30 -1 -31
-1 -8 7 34 11 40 11 40 2z m-630 -11 c0 -5 -9 -11 -19 -14 -14 -3 -18 -1 -14
9 6 15 33 19 33 5z m557 -17 c-3 -3 -12 -4 -19 -1 -8 3 -5 6 6 6 11 1 17 -2
13 -5z m-284 -145 c-8 -8 -16 -8 -30 0 -16 9 -14 10 12 11 21 0 26 -3 18 -11z
m-83 -78 c0 -5 -13 -11 -29 -13 -21 -3 -28 -1 -24 9 6 14 53 18 53 4z m-13
-27 c-3 -3 -12 -4 -19 -1 -8 3 -5 6 6 6 11 1 17 -2 13 -5z"/>
<path d="M7800 3816 c0 -2 9 -6 20 -9 11 -3 20 -1 20 4 0 5 -9 9 -20 9 -11 0
-20 -2 -20 -4z"/>
<path d="M7711 3790 c9 -5 36 -12 60 -15 42 -5 41 -4 -11 10 -65 17 -70 17
-49 5z"/>
<path d="M4360 3550 c-12 -8 -9 -10 13 -10 15 0 27 5 27 10 0 13 -20 13 -40 0z"/>
<path d="M1845 3430 c-3 -5 -2 -10 4 -10 5 0 13 5 16 10 3 6 2 10 -4 10 -5 0
-13 -4 -16 -10z"/>
<path d="M1739 3419 c-8 -5 -24 -9 -36 -9 -13 0 -23 -5 -23 -11 0 -8 -4 -8
-14 0 -10 8 -16 8 -25 -3 -9 -11 -9 -15 1 -19 7 -3 3 -6 -9 -6 -13 -1 -22 4
-20 12 1 6 -5 10 -13 8 -8 -2 -22 -5 -30 -6 -8 -2 -15 -4 -15 -5 0 -1 -12 -3
-28 -5 -15 -2 -25 0 -22 6 9 13 -21 11 -59 -5 -21 -9 -55 -12 -95 -9 -53 3
-69 0 -104 -20 -23 -14 -65 -28 -92 -32 -28 -4 -54 -11 -60 -15 -5 -4 -54 -17
-108 -29 -55 -12 -107 -26 -117 -31 -9 -5 -20 -7 -23 -4 -3 3 -27 -1 -54 -9
-26 -8 -70 -18 -97 -21 -27 -3 -59 -13 -71 -20 -12 -8 -54 -19 -94 -24 -39 -6
-86 -20 -105 -31 -19 -12 -38 -20 -43 -19 -4 1 -19 -4 -32 -11 -14 -8 -60 -15
-103 -17 -42 -3 -89 -9 -103 -14 -15 -6 -45 -10 -68 -10 -23 0 -50 -7 -59 -14
-17 -12 -18 -97 -18 -1530 l0 -1516 206 0 c225 0 217 -2 252 63 10 20 30 45
42 55 22 18 24 27 26 141 1 70 6 127 13 135 6 7 8 16 4 19 -3 4 0 7 8 8 8 0 3
5 -11 10 l-25 10 24 18 c22 17 22 18 5 25 -13 5 -15 9 -7 14 7 5 13 39 14 85
2 42 6 77 10 77 4 0 9 18 11 40 2 26 0 39 -7 36 -10 -3 -9 12 10 158 2 22 0
45 -5 51 -6 7 -6 24 0 46 15 50 12 66 -10 72 -20 5 -29 37 -10 37 6 0 10 4 10
10 0 5 -13 7 -29 4 -23 -5 -32 -2 -40 15 -10 18 -9 20 6 14 12 -5 15 -2 10 10
-4 10 -2 28 3 42 9 23 7 25 -19 25 -16 0 -31 5 -33 12 -3 7 -14 9 -33 4 -22
-6 -26 -9 -15 -16 12 -7 12 -12 2 -22 -9 -9 -12 -8 -13 8 -2 38 3 56 22 75 10
10 19 27 19 37 0 10 11 33 24 51 l24 32 19 -24 c17 -22 24 -24 64 -18 25 4 50
11 57 15 7 4 12 2 12 -3 0 -6 15 -11 33 -11 35 0 107 -43 107 -63 0 -16 54
-57 74 -57 26 0 66 -23 66 -37 0 -7 3 -13 8 -13 4 0 14 -15 21 -32 8 -18 22
-39 32 -46 18 -12 64 -103 90 -174 7 -21 21 -40 31 -44 10 -3 19 -15 19 -27 5
-79 11 -104 36 -153 15 -30 31 -54 35 -54 4 0 8 -4 8 -9 0 -5 31 -40 70 -79
38 -38 70 -77 70 -85 0 -9 11 -29 25 -45 14 -17 25 -33 25 -37 0 -3 7 -14 16
-22 11 -12 14 -27 10 -52 -3 -24 0 -47 10 -66 10 -20 14 -43 10 -67 -3 -20 -2
-38 3 -40 5 -2 6 -24 2 -49 l-7 -46 32 7 c43 10 54 18 54 40 0 10 10 26 22 34
19 14 20 16 4 22 -14 5 -14 9 -4 22 11 13 10 15 -4 9 -25 -9 -22 6 7 37 28 30
34 46 10 26 -12 -10 -19 -10 -27 -2 -9 9 -8 12 2 12 11 1 10 4 -4 15 -18 14
-14 35 7 35 7 0 20 7 30 14 16 13 14 14 -22 9 -53 -7 -53 9 -1 62 22 22 40 43
40 47 0 5 -11 14 -25 20 -31 14 -31 22 0 36 31 14 32 40 3 51 -23 9 -23 9 5
20 26 10 38 31 17 31 -22 0 -8 20 18 27 l27 7 -35 9 c-34 9 -34 10 -12 20 12
5 22 18 22 27 0 19 30 50 49 50 8 0 10 7 6 20 -4 13 -2 20 7 20 8 0 22 10 32
21 18 21 18 22 -2 17 -16 -4 -19 -2 -15 10 4 8 2 13 -3 9 -19 -11 -31 8 -27
40 3 20 12 33 25 36 11 3 17 10 13 16 -3 6 -2 11 3 11 16 0 24 33 10 42 -10 6
-10 10 1 17 8 5 15 18 16 28 1 10 5 38 10 62 5 32 4 46 -6 52 -11 7 -11 11 -1
17 14 10 11 47 -5 63 -8 8 -6 19 6 40 14 26 14 31 1 39 -12 8 -12 10 5 10 19
1 19 2 3 14 -13 10 -15 15 -6 24 9 9 6 12 -12 13 -14 1 -29 1 -33 0 -5 -1 -6
3 -2 9 3 5 12 10 19 10 15 0 56 42 56 58 0 7 -12 12 -27 12 l-28 1 28 15 c22
12 26 20 21 39 -5 21 -3 25 16 25 18 0 19 2 8 13 -7 8 -20 16 -28 20 -11 4
-10 6 5 7 16 1 14 4 -10 14 l-30 14 28 11 c25 10 38 31 18 31 -13 0 -21 39 -9
46 5 3 3 13 -7 24 -13 14 -13 19 -3 22 8 3 -1 12 -20 22 -19 10 -31 20 -28 24
4 3 12 0 18 -6 7 -7 18 -12 25 -12 11 0 11 5 3 21 -10 17 -8 21 10 26 13 3 19
11 16 19 -3 8 2 14 12 15 14 0 14 2 2 6 -8 3 -23 13 -33 21 -13 12 -15 17 -5
24 8 5 1 8 -19 8 -18 0 -33 5 -33 10 0 6 12 10 26 10 14 0 23 4 19 10 -3 6 1
10 9 10 9 0 16 3 16 6 0 14 -43 43 -72 49 -35 8 -32 15 12 20 38 5 45 10 35
25 -4 6 -16 8 -28 5 l-22 -5 21 11 c23 12 30 59 9 59 -8 0 -11 8 -8 20 3 11
13 20 21 20 15 0 15 2 0 17 -16 15 -16 17 0 29 14 10 9 13 -33 19 -70 9 -74
11 -40 20 17 5 33 12 36 17 4 6 20 6 43 0 36 -10 58 0 33 15 -7 4 -16 16 -20
25 -3 9 -16 18 -28 20 -26 3 -39 28 -15 28 20 0 21 19 1 26 -14 6 -13 8 1 19
9 6 14 17 10 23 -3 6 2 16 11 21 17 10 17 12 -1 26 -16 12 -17 17 -6 30 7 8 9
15 4 15 -4 0 -3 5 4 12 9 9 7 14 -6 24 -16 12 -16 13 3 14 11 0 27 4 35 10 12
7 10 13 -12 33 -30 28 -27 37 11 37 l25 0 -24 22 -24 22 25 6 c14 4 23 12 21
22 -2 11 9 18 35 23 21 4 32 10 24 13 -18 6 -51 34 -51 44 0 4 18 6 40 5 53
-2 58 7 21 39 -38 32 -32 44 20 44 38 0 39 1 24 16 -9 10 -14 26 -11 37 3 11
1 28 -4 37 -7 14 -4 16 21 12 24 -4 29 -1 29 18 0 12 8 29 17 38 16 16 15 17
-1 20 -13 3 -16 10 -12 28 4 14 2 24 -4 24 -5 0 -10 5 -10 11 0 6 8 9 18 7 15
-4 17 0 14 24 -3 20 -9 27 -18 24 -8 -3 -15 0 -16 7 -2 16 -5 47 -7 75 -1 26
-17 28 -57 7 -37 -19 -41 -13 -14 25 12 17 19 34 16 37 -3 4 -6 1 -6 -5 0 -7
-8 -12 -17 -12 -10 0 -30 -6 -45 -14 -21 -11 -26 -11 -22 -1 3 7 19 19 35 25
16 7 29 16 29 21 0 5 6 9 13 9 7 0 22 6 32 14 18 13 17 14 -8 11 -15 -2 -43
-13 -62 -25 -36 -22 -49 -18 -17 6 16 13 16 13 0 14 -10 0 -18 4 -18 10 0 5 7
7 15 4 22 -9 19 19 -3 33 -12 7 -24 8 -33 2z m106 -479 c3 -5 1 -10 -4 -10 -6
0 -11 5 -11 10 0 6 2 10 4 10 3 0 8 -4 11 -10z m-1350 -1950 c3 -5 1 -10 -4
-10 -6 0 -11 5 -11 10 0 6 2 10 4 10 3 0 8 -4 11 -10z m1060 -350 c3 -5 1 -10
-4 -10 -6 0 -11 5 -11 10 0 6 2 10 4 10 3 0 8 -4 11 -10z m5 -34 c0 -3 -4 -8
-10 -11 -5 -3 -10 -1 -10 4 0 6 5 11 10 11 6 0 10 -2 10 -4z"/>
<path d="M1825 3399 c-4 -6 -5 -12 -2 -15 2 -3 7 2 10 11 7 17 1 20 -8 4z"/>
<path d="M1895 3330 c-3 -5 -1 -10 4 -10 6 0 11 5 11 10 0 6 -2 10 -4 10 -3 0
-8 -4 -11 -10z"/>
<path d="M7613 3303 c9 -2 23 -2 30 0 6 3 -1 5 -18 5 -16 0 -22 -2 -12 -5z"/>
<path d="M8098 3133 c7 -3 16 -2 19 1 4 3 -2 6 -13 5 -11 0 -14 -3 -6 -6z"/>
<path d="M7305 2870 c3 -5 13 -10 21 -10 8 0 14 5 14 10 0 6 -9 10 -21 10 -11
0 -17 -4 -14 -10z"/>
<path d="M8030 2756 c0 -11 -9 -16 -26 -16 -22 0 -24 -3 -15 -14 8 -10 9 -16
1 -21 -33 -21 31 -50 89 -40 44 7 56 24 19 26 -17 1 -19 2 -5 6 21 6 23 23 1
23 -10 0 -12 5 -7 13 10 16 13 37 5 37 -3 0 -14 -8 -24 -17 -13 -12 -18 -13
-16 -4 2 7 -3 16 -9 18 -7 3 -13 -2 -13 -11z"/>
<path d="M8392 2703 c-2 -34 1 -43 15 -43 13 0 14 -3 5 -12 -22 -22 -14 -48
14 -48 21 0 24 -4 19 -20 -4 -13 0 -23 14 -32 15 -9 21 -23 21 -50 0 -20 4
-39 9 -42 5 -3 10 -22 11 -41 3 -73 5 -83 14 -78 16 10 26 -22 26 -89 0 -54
-3 -68 -15 -68 -17 0 -20 -25 -5 -35 13 -8 13 -132 1 -140 -5 -3 -12 -1 -16 5
-3 5 -10 10 -14 10 -12 0 -35 -76 -28 -94 3 -8 0 -20 -8 -26 -10 -8 -18 -5
-34 16 -15 19 -21 22 -21 11 0 -14 -28 -37 -45 -37 -3 0 -10 12 -16 28 -7 15
-13 22 -16 15 -5 -13 -35 -18 -46 -7 -3 3 4 15 14 25 23 23 20 45 -5 43 -11
-1 -16 4 -14 15 2 9 -5 25 -15 36 -16 18 -32 20 -155 22 -75 1 -129 -1 -119
-4 30 -8 15 -37 -23 -44 -29 -5 -25 -7 25 -8 51 -2 57 -4 38 -13 -13 -6 -23
-17 -23 -25 0 -7 -6 -13 -14 -13 -8 0 -16 -6 -19 -14 -6 -15 31 -26 91 -26 61
0 25 -13 -45 -16 -36 -2 -71 -8 -77 -15 -8 -9 -4 -10 17 -7 15 3 30 1 33 -3 3
-5 17 -9 32 -10 18 0 7 -6 -32 -17 -58 -17 -86 -41 -49 -43 14 0 12 -3 -7 -11
l-25 -11 23 -4 c30 -6 18 -23 -16 -23 -21 0 -24 -2 -12 -10 12 -8 10 -10 -10
-11 -14 -1 2 -7 35 -14 l60 -12 -40 -7 c-65 -12 -112 -29 -92 -34 29 -6 19
-21 -20 -28 l-38 -8 45 -10 45 -10 -45 -6 c-33 -4 -40 -7 -27 -12 10 -5 33 -8
50 -9 28 -1 26 -3 -23 -19 -30 -11 -46 -19 -35 -20 16 0 17 -2 5 -10 -12 -7
-12 -12 -2 -22 18 -18 15 -28 -11 -28 -12 0 -30 -9 -40 -20 -16 -19 -16 -20 3
-20 17 0 18 -3 8 -19 -6 -10 -17 -17 -24 -14 -6 2 -15 0 -19 -6 -3 -6 -2 -11
4 -11 5 0 8 -12 6 -26 -2 -19 3 -28 16 -31 20 -6 26 -23 9 -23 -7 0 -7 -6 0
-19 13 -25 13 -31 0 -31 -6 0 -21 -10 -33 -21 l-22 -22 30 7 c27 6 28 5 12 -8
-13 -10 -15 -15 -5 -18 11 -4 10 -8 -1 -21 -12 -15 -11 -17 3 -17 19 0 21 -16
4 -23 -7 -3 1 -8 19 -12 17 -4 34 -13 37 -21 3 -8 16 -14 29 -14 14 0 30 -7
37 -15 7 -8 29 -15 49 -15 30 0 37 -4 38 -20 1 -16 -4 -20 -27 -20 -16 0 -31
-4 -34 -9 -8 -12 101 -19 120 -8 8 5 20 6 27 4 7 -2 -1 -11 -17 -18 l-30 -14
40 -8 c21 -5 57 -11 79 -14 53 -7 69 -23 25 -23 -29 -1 -32 -2 -17 -11 9 -5
21 -8 26 -5 5 4 17 3 27 -1 16 -6 16 -7 -2 -20 -10 -7 -13 -13 -5 -13 15 0 41
-25 41 -39 0 -6 5 -11 10 -11 6 0 10 -7 10 -15 0 -8 15 -19 33 -24 17 -5 24
-10 14 -10 -28 -1 -14 -26 17 -29 19 -2 26 -8 22 -18 -3 -8 0 -14 7 -14 7 -1
5 -6 -5 -14 -28 -21 -22 -44 13 -51 21 -5 27 -10 19 -15 -22 -14 -1 -50 33
-57 l32 -7 -30 -7 -30 -7 27 -1 c17 -1 26 -6 23 -14 -9 -24 14 -40 71 -47 34
-4 46 -8 27 -9 -17 0 -38 -8 -47 -16 -8 -8 -22 -15 -30 -15 -10 0 -13 -6 -10
-15 4 -8 16 -15 28 -15 17 0 18 -2 6 -10 -12 -8 -10 -10 10 -10 18 0 21 -3 11
-9 -7 -5 -10 -14 -7 -20 4 -6 0 -11 -10 -11 -22 0 -14 -9 12 -13 10 -1 28 -8
39 -15 18 -11 16 -12 -14 -6 -23 4 -31 3 -27 -5 4 -6 28 -11 52 -11 l46 0 -29
-24 c-15 -12 -41 -28 -58 -34 l-30 -10 32 -1 c25 -1 31 -5 27 -16 -4 -8 -1
-15 6 -15 10 0 9 -4 -1 -16 -11 -13 -11 -15 2 -14 7 1 30 1 49 0 l35 -2 -35
-11 -35 -11 40 -7 c39 -6 39 -6 -15 -8 -41 -2 -50 -5 -35 -11 11 -5 36 -9 55
-10 32 -2 33 -3 10 -10 -14 -4 -38 -6 -55 -3 -30 3 -30 3 5 -11 19 -8 29 -15
21 -15 -7 -1 -11 -7 -8 -15 4 -9 -3 -17 -16 -21 -27 -8 -17 -12 56 -20 31 -4
57 -10 57 -14 0 -4 -13 -6 -30 -3 -17 2 -30 0 -30 -6 0 -6 -10 -13 -22 -15
-13 -2 34 -5 103 -6 112 -1 128 1 133 16 5 12 -1 23 -18 36 -15 10 -26 25 -26
33 0 8 -4 14 -8 14 -12 0 -40 66 -52 124 -9 40 -8 57 6 92 9 24 19 44 23 44 3
0 18 10 34 23 24 20 26 26 18 54 -8 28 -6 34 14 47 28 18 37 70 18 101 -11 19
-10 21 15 20 24 0 27 4 30 40 5 54 17 65 68 65 l44 0 0 -41 c0 -37 2 -40 16
-28 10 8 12 15 5 17 -15 5 -14 53 1 102 15 48 25 50 39 10 11 -32 28 -37 60
-20 23 13 25 38 4 46 -30 12 -15 27 22 21 27 -5 33 -3 25 5 -19 19 -14 38 13
60 20 15 25 28 25 63 0 35 -4 44 -21 48 -25 7 -16 27 12 27 19 0 25 11 13 23
-4 3 -7 58 -8 121 -1 65 -7 120 -13 128 -11 13 -18 90 -15 166 2 39 4 43 23
37 16 -5 20 -3 16 6 -2 8 -10 13 -16 12 -6 -2 -11 3 -11 11 0 7 -3 28 -7 46
-5 28 -4 32 10 27 25 -9 28 7 12 54 -10 29 -12 45 -5 47 5 2 7 8 4 14 -18 29
-22 83 -9 115 15 36 30 41 61 18 12 -8 43 -19 70 -25 27 -5 59 -12 72 -15 21
-5 22 -3 22 60 0 37 -4 65 -10 65 -5 0 -10 8 -10 18 0 12 -15 26 -37 38 -21
10 -40 23 -42 28 -5 12 -81 87 -81 80 0 -3 -20 15 -45 39 -25 25 -45 50 -45
55 0 6 -16 28 -36 49 -20 21 -43 57 -51 80 -8 23 -25 49 -39 58 -13 8 -24 23
-24 33 0 10 -6 24 -12 31 -8 7 -13 37 -13 69 0 50 -2 57 -20 57 -12 0 -19 6
-17 14 7 33 -8 61 -33 61 -13 0 -40 10 -60 21 -39 23 -37 23 -153 -13 -26 -7
-41 -6 -67 6 -19 9 -37 21 -40 26 -3 6 -20 10 -36 10 -17 0 -39 5 -50 11 -16
8 -25 7 -39 -6 -18 -16 -19 -15 -23 17 -3 30 -4 29 -5 -9z m-232 -653 c0 -5
-12 -10 -27 -9 l-28 1 25 8 c14 4 26 8 28 9 1 1 2 -3 2 -9z m-81 -16 c2 -2 -7
-4 -22 -4 -14 0 -33 -3 -41 -6 -12 -5 -15 -2 -10 9 4 12 14 15 37 10 18 -3 34
-7 36 -9z m74 -131 c-7 -2 -21 -2 -30 0 -10 3 -4 5 12 5 17 0 24 -2 18 -5z
m220 -66 c-3 -14 2 -31 12 -40 15 -16 15 -17 -7 -17 -28 0 -51 34 -43 61 4 10
14 19 24 19 14 0 17 -6 14 -23z m-586 -693 c-3 -3 -12 -4 -19 -1 -8 3 -5 6 6
6 11 1 17 -2 13 -5z m216 -108 c4 -10 1 -13 -9 -9 -7 3 -14 9 -14 14 0 14 17
10 23 -5z m982 -146 c-3 -5 -10 -10 -16 -10 -5 0 -9 5 -9 10 0 6 7 10 16 10 8
0 12 -4 9 -10z m24 -39 c21 -13 -5 -24 -29 -11 -16 8 -20 8 -20 -3 0 -19 -50
-41 -64 -27 -7 7 -6 10 5 10 8 0 20 9 27 20 13 21 56 27 81 11z m-52 -83 c-3
-7 -5 -2 -5 12 0 14 2 19 5 13 2 -7 2 -19 0 -25z m-20 -24 c-3 -3 -12 -4 -19
-1 -8 3 -5 6 6 6 11 1 17 -2 13 -5z m-137 -229 c0 -8 -9 -15 -20 -15 -22 0
-27 15 -7 23 21 9 27 7 27 -8z m-220 -289 c0 -2 -7 -6 -15 -10 -8 -3 -15 -1
-15 4 0 6 7 10 15 10 8 0 15 -2 15 -4z"/>
<path d="M7920 2711 c0 -5 7 -12 16 -15 22 -9 24 -8 24 9 0 8 -9 15 -20 15
-11 0 -20 -4 -20 -9z"/>
<path d="M8140 2661 c0 -5 -13 -12 -30 -16 -53 -12 -43 -25 19 -25 58 0 82 13
44 23 -17 4 -17 5 0 6 27 2 20 21 -8 21 -14 0 -25 -4 -25 -9z"/>
<path d="M7300 2570 c0 -5 5 -10 10 -10 6 0 10 5 10 10 0 6 -4 10 -10 10 -5 0
-10 -4 -10 -10z"/>
<path d="M8070 2560 c0 -5 14 -10 30 -10 17 0 30 5 30 10 0 6 -13 10 -30 10
-16 0 -30 -4 -30 -10z"/>
<path d="M7208 2493 c7 -3 16 -2 19 1 4 3 -2 6 -13 5 -11 0 -14 -3 -6 -6z"/>
<path d="M7485 2490 c3 -5 8 -10 11 -10 2 0 4 5 4 10 0 6 -5 10 -11 10 -5 0
-7 -4 -4 -10z"/>
<path d="M8158 2413 c-27 -2 -48 -8 -48 -14 0 -5 -7 -9 -15 -9 -8 0 -15 -5
-15 -11 0 -7 9 -9 23 -4 12 3 37 10 56 15 18 5 38 13 44 19 6 6 9 10 7 9 -3
-1 -26 -3 -52 -5z"/>
<path d="M8080 2350 c0 -5 10 -10 23 -10 18 0 19 2 7 10 -19 13 -30 13 -30 0z"/>
<path d="M8048 2343 c7 -3 16 -2 19 1 4 3 -2 6 -13 5 -11 0 -14 -3 -6 -6z"/>
<path d="M8110 2250 c0 -5 5 -10 11 -10 5 0 7 5 4 10 -3 6 -8 10 -11 10 -2 0
-4 -4 -4 -10z"/>
<path d="M8152 2239 c2 -7 10 -15 17 -17 8 -3 12 1 9 9 -2 7 -10 15 -17 17 -8
3 -12 -1 -9 -9z"/>
<path d="M8120 2207 c0 -13 -36 -31 -82 -43 -16 -3 -25 -10 -22 -15 3 -6 14
-7 25 -4 11 4 19 2 19 -4 0 -6 -9 -11 -20 -11 -13 0 -18 -5 -14 -15 4 -9 0
-15 -7 -16 -43 -3 49 -17 118 -18 74 -1 83 1 93 20 7 11 10 22 8 23 -25 16
-67 56 -59 56 6 0 2 9 -9 20 -22 22 -50 27 -50 7z"/>
<path d="M560 1325 c0 -8 2 -15 4 -15 2 0 6 7 10 15 3 8 1 15 -4 15 -6 0 -10
-7 -10 -15z"/>
<path d="M7848 1003 c7 -3 16 -2 19 1 4 3 -2 6 -13 5 -11 0 -14 -3 -6 -6z"/>
<path d="M8980 535 c0 -8 2 -15 4 -15 2 0 6 7 10 15 3 8 1 15 -4 15 -6 0 -10
-7 -10 -15z"/>
<path d="M8900 320 c0 -5 7 -10 15 -10 8 0 15 5 15 10 0 6 -7 10 -15 10 -8 0
-15 -4 -15 -10z"/>
<path d="M1466 48 c-20 -11 -21 -28 -1 -28 8 0 15 -4 15 -10 0 -5 5 -10 10
-10 6 0 10 5 10 11 0 7 7 17 17 24 14 11 13 13 -9 17 -15 3 -33 1 -42 -4z"/>
</g>
</svg>
